<?xml version="1.0" encoding="UTF-8"?> <svg xmlns="http://www.w3.org/2000/svg" width="48" height="48" viewBox="0 0 48 48" fill="none"><path d="M36.75 42.75C34.269 42.75 32.25 40.731 32.25 38.25C32.25 35.769 34.269 33.75 36.75 33.75C39.231 33.75 41.25 35.769 41.25 38.25C41.25 40.731 39.231 42.75 36.75 42.75ZM36.75 35.25C35.0955 35.25 33.75 36.5955 33.75 38.25C33.75 39.9045 35.0955 41.25 36.75 41.25C38.4045 41.25 39.75 39.9045 39.75 38.25C39.75 36.5955 38.4045 35.25 36.75 35.25ZM29.25 40.5H23.25C23.0511 40.5 22.8603 40.421 22.7197 40.2803C22.579 40.1397 22.5 39.9489 22.5 39.75C22.5 39.5511 22.579 39.3603 22.7197 39.2197C22.8603 39.079 23.0511 39 23.25 39H29.25C29.4489 39 29.6397 39.079 29.7803 39.2197C29.921 39.3603 30 39.5511 30 39.75C30 39.9489 29.921 40.1397 29.7803 40.2803C29.6397 40.421 29.4489 40.5 29.25 40.5ZM36.75 24H24.75C24.5511 24 24.3603 23.921 24.2197 23.7803C24.079 23.6397 24 23.4489 24 23.25C24 23.0511 24.079 22.8603 24.2197 22.7197C24.3603 22.579 24.5511 22.5 24.75 22.5H36.75C36.9489 22.5 37.1397 22.579 37.2803 22.7197C37.421 22.8603 37.5 23.0511 37.5 23.25C37.5 23.4489 37.421 23.6397 37.2803 23.7803C37.1397 23.921 36.9489 24 36.75 24ZM36.75 21H21.75C21.5511 21 21.3603 20.921 21.2197 20.7803C21.079 20.6397 21 20.4489 21 20.25C21 20.0511 21.079 19.8603 21.2197 19.7197C21.3603 19.579 21.5511 19.5 21.75 19.5H36.75C36.9489 19.5 37.1397 19.579 37.2803 19.7197C37.421 19.8603 37.5 20.0511 37.5 20.25C37.5 20.4489 37.421 20.6397 37.2803 20.7803C37.1397 20.921 36.9489 21 36.75 21ZM36.75 18H21.75C21.5511 18 21.3603 17.921 21.2197 17.7803C21.079 17.6397 21 17.4489 21 17.25C21 17.0511 21.079 16.8603 21.2197 16.7197C21.3603 16.579 21.5511 16.5 21.75 16.5H36.75C36.9489 16.5 37.1397 16.579 37.2803 16.7197C37.421 16.8603 37.5 17.0511 37.5 17.25C37.5 17.4489 37.421 17.6397 37.2803 17.7803C37.1397 17.921 36.9489 18 36.75 18ZM30.75 10.5H16.5C16.3011 10.5 16.1103 10.421 15.9697 10.2803C15.829 10.1397 15.75 9.94891 15.75 9.75C15.75 9.55109 15.829 9.36032 15.9697 9.21967C16.1103 9.07902 16.3011 9 16.5 9H30.75C30.9489 9 31.1397 9.07902 31.2803 9.21967C31.421 9.36032 31.5 9.55109 31.5 9.75C31.5 9.94891 31.421 10.1397 31.2803 10.2803C31.1397 10.421 30.9489 10.5 30.75 10.5ZM13.5 40.5C7.7115 40.5 3 35.7885 3 30C3 24.21 7.7115 19.5 13.5 19.5C15.9313 19.5014 18.2869 20.3453 20.166 21.888C20.2452 21.9495 20.3113 22.0262 20.3603 22.1137C20.4093 22.2012 20.4403 22.2976 20.4514 22.3972C20.4625 22.4969 20.4536 22.5977 20.425 22.6939C20.3965 22.79 20.349 22.8794 20.2853 22.9568C20.2216 23.0343 20.143 23.0982 20.0542 23.1447C19.9654 23.1912 19.8681 23.2195 19.7682 23.2278C19.6683 23.2361 19.5677 23.2243 19.4724 23.1931C19.3772 23.1619 19.2891 23.1118 19.2135 23.046C17.6029 21.7239 15.5838 21.0008 13.5 21C8.5365 21 4.5 25.0365 4.5 30C4.5 34.9635 8.5365 39 13.5 39C14.8537 38.9989 16.1897 38.6928 17.4087 38.1043C18.6278 37.5159 19.6986 36.6603 20.5416 35.6012C21.3845 34.5421 21.978 33.3066 22.2778 31.9865C22.5777 30.6665 22.5762 29.2959 22.2735 27.9765C22.2513 27.8805 22.2483 27.781 22.2647 27.6838C22.281 27.5866 22.3164 27.4936 22.3688 27.4101C22.4212 27.3266 22.4896 27.2543 22.57 27.1973C22.6505 27.1403 22.7414 27.0998 22.8375 27.078C22.9336 27.055 23.0333 27.0514 23.1308 27.0674C23.2283 27.0834 23.3216 27.1187 23.4053 27.1712C23.4889 27.2237 23.5613 27.2924 23.6181 27.3733C23.6749 27.4541 23.715 27.5455 23.736 27.642C23.91 28.41 24 29.205 24 30C24 35.7885 19.2885 40.5 13.5 40.5Z" fill="white"></path><path d="M13.5 34.5H13.482C13.3749 34.4973 13.2696 34.4718 13.1732 34.4253C13.0767 34.3787 12.9912 34.3121 12.9225 34.23L9.17249 29.73C9.04591 29.5766 8.98499 29.3795 9.00297 29.1815C9.02095 28.9835 9.11637 28.8006 9.26849 28.6725C9.42184 28.5459 9.61896 28.485 9.81698 28.503C10.015 28.521 10.1979 28.6164 10.326 28.7685L13.5255 32.61L21.1965 24.243C21.333 24.1049 21.5177 24.0251 21.7118 24.0204C21.9059 24.0156 22.0943 24.0864 22.2373 24.2178C22.3803 24.3491 22.4668 24.5308 22.4786 24.7246C22.4904 24.9185 22.4265 25.1093 22.3005 25.257L14.052 34.257C13.9819 34.3336 13.8966 34.3947 13.8015 34.4366C13.7065 34.4784 13.6038 34.5 13.5 34.5ZM9.74999 18C9.55108 18 9.36031 17.921 9.21966 17.7803C9.07901 17.6397 8.99999 17.4489 8.99999 17.25V2.25C8.99999 2.05109 9.07901 1.86032 9.21966 1.71967C9.36031 1.57902 9.55108 1.5 9.74999 1.5H33.75C33.9489 1.5 34.1397 1.57902 34.2803 1.71967C34.421 1.86032 34.5 2.05109 34.5 2.25C34.5 2.44891 34.421 2.63968 34.2803 2.78033C34.1397 2.92098 33.9489 3 33.75 3H10.5V17.25C10.5 17.4489 10.421 17.6397 10.2803 17.7803C10.1397 17.921 9.9489 18 9.74999 18ZM44.25 46.5H9.74999C9.55108 46.5 9.36031 46.421 9.21966 46.2803C9.07901 46.1397 8.99999 45.9489 8.99999 45.75V42.75C8.99999 42.5511 9.07901 42.3603 9.21966 42.2197C9.36031 42.079 9.55108 42 9.74999 42C9.9489 42 10.1397 42.079 10.2803 42.2197C10.421 42.3603 10.5 42.5511 10.5 42.75V45H43.5V12.75C43.5 12.5511 43.579 12.3603 43.7197 12.2197C43.8603 12.079 44.0511 12 44.25 12C44.4489 12 44.6397 12.079 44.7803 12.2197C44.921 12.3603 45 12.5511 45 12.75V45.75C45 45.9489 44.921 46.1397 44.7803 46.2803C44.6397 46.421 44.4489 46.5 44.25 46.5Z" fill="white"></path><path d="M44.25 13.4998H33.75C33.5511 13.4998 33.3603 13.4208 33.2197 13.2801C33.079 13.1395 33 12.9487 33 12.7498V5.9998C33 5.80089 33.079 5.61012 33.2197 5.46947C33.3603 5.32882 33.5511 5.2498 33.75 5.2498C33.9489 5.2498 34.1397 5.32882 34.2803 5.46947C34.421 5.61012 34.5 5.80089 34.5 5.9998V11.9998H42.4395L33.2205 2.7808C33.0839 2.63935 33.0083 2.4499 33.01 2.25325C33.0117 2.0566 33.0906 1.86849 33.2296 1.72944C33.3687 1.59038 33.5568 1.5115 33.7535 1.50979C33.9501 1.50809 34.1395 1.58368 34.281 1.7203L44.781 12.2203C44.8864 12.325 44.9582 12.4587 44.9874 12.6043C45.0166 12.75 45.0017 12.901 44.9448 13.0382C44.8879 13.1754 44.7914 13.2926 44.6677 13.3748C44.5439 13.457 44.3985 13.5005 44.25 13.4998Z" fill="white"></path></svg> 