<?xml version="1.0" encoding="UTF-8"?> <svg xmlns="http://www.w3.org/2000/svg" width="48" height="48" viewBox="0 0 48 48" fill="none"><g clip-path="url(#clip0_40_31)"><path d="M38.8268 29.6536C37.8534 29.6536 36.9548 29.8034 36.0562 30.1029V28.0811C37.4789 25.3104 38.3026 22.2401 38.3026 19.17C38.2277 8.53662 29.6911 0 19.1326 0C8.57419 0 0.0374756 8.53662 0.0374756 19.0952C0.0374756 29.2043 7.7504 37.4415 17.7099 38.1903V43.3572C17.7099 45.6037 23.4758 46.2777 26.8456 46.2777C29.0172 46.2777 31.1139 46.053 32.7613 45.6786C34.4087 47.1014 36.5055 48 38.8268 48C43.844 47.9252 47.9625 43.8066 47.9625 38.7894C47.9625 33.6973 43.844 29.6536 38.8268 29.6536ZM17.7098 26.209V36.6926C8.87358 35.9438 1.9095 28.7551 1.53508 19.844H3.85647C4.30574 19.844 4.60532 19.5444 4.60532 19.0952C4.60532 18.6459 4.30574 18.3463 3.85647 18.3463H1.53508C1.9095 9.21063 9.248 1.87203 18.3837 1.4977V3.81909C18.3837 4.26836 18.6833 4.56794 19.1325 4.56794C19.5818 4.56794 19.8814 4.26836 19.8814 3.81909V1.4977C29.0171 1.87212 36.3557 9.21063 36.73 18.3463H34.4086C33.9593 18.3463 33.6598 18.6459 33.6598 19.0952C33.6598 19.5444 33.9593 19.844 34.4086 19.844H36.73C36.6551 21.7161 36.2807 23.5133 35.6067 25.2355C34.2588 23.7378 29.691 23.2886 26.8455 23.2886C23.4758 23.2886 17.7098 23.8876 17.7098 26.209ZM29.8409 40.287C28.8674 40.3618 27.9688 40.4368 26.9204 40.4368C22.2776 40.4368 19.507 39.5381 19.2823 39.014V36.468C21.2293 37.3666 24.599 37.6661 26.9204 37.6661C27.8939 37.6661 28.8674 37.5913 29.7659 37.5163C29.6911 37.9656 29.6911 38.34 29.6911 38.7893C29.6911 39.3135 29.6911 39.7629 29.8409 40.287ZM26.8456 36.1685C22.2028 36.1685 19.4321 35.2699 19.2075 34.7457V32.1997C21.1544 33.0984 24.5242 33.3978 26.8456 33.3978C28.2683 33.3978 30.0655 33.323 31.713 33.0234C30.9641 33.9221 30.44 34.8954 30.0656 36.0187C29.092 36.0936 27.9687 36.1685 26.8456 36.1685ZM26.8456 31.9001C22.2028 31.9001 19.4321 31.0015 19.2075 30.4774V27.9314C21.1544 28.83 24.5242 29.1295 26.8456 29.1295C29.167 29.1295 32.5367 28.8299 34.4836 27.9314V30.4774C34.2589 30.9267 31.4882 31.9001 26.8456 31.9001ZM19.2823 26.209C19.7316 25.6848 22.4274 24.7863 26.9204 24.7863C31.3385 24.7863 34.1091 25.6849 34.5585 26.209C34.1092 26.7332 31.4134 27.6318 26.9204 27.6318C22.4274 27.5569 19.7317 26.7332 19.2823 26.209ZM26.8456 44.7051C22.2028 44.7051 19.4321 43.8065 19.2075 43.2824V40.7363C21.1544 41.635 24.5242 41.9345 26.8456 41.9345C27.9688 41.9345 29.092 41.8596 30.1404 41.7847C30.44 42.7582 30.9641 43.5818 31.5632 44.4055C30.2153 44.6302 28.5678 44.7051 26.8456 44.7051ZM38.8268 46.4275C35.3823 46.4275 32.312 44.1061 31.4134 40.7363C31.2636 40.0624 31.1888 39.4634 31.1888 38.7894C31.1888 38.1154 31.2636 37.5164 31.4134 36.8424C32.312 33.4727 35.3073 31.0764 38.8268 31.0764C43.0203 31.0764 46.4649 34.521 46.4649 38.7145C46.4648 42.9828 43.0203 46.4275 38.8268 46.4275Z" fill="white"></path><path d="M39.5756 34.0717V32.7988C39.5756 32.3495 39.276 32.0499 38.8267 32.0499C38.3775 32.0499 38.0779 32.3495 38.0779 32.7988V34.1467C36.8049 34.4462 35.9063 35.4946 35.9063 36.7675C35.9063 38.0405 36.8049 39.0889 38.0779 39.3884V41.9344C37.7783 41.8596 37.3291 41.7098 36.8798 41.4102C36.5802 41.1856 36.0561 41.2604 35.8315 41.56C35.6068 41.9344 35.6817 42.4587 35.9812 42.6833C36.7301 43.2075 37.4789 43.4321 38.078 43.507V44.7799C38.078 45.2292 38.3776 45.5288 38.8268 45.5288C39.2761 45.5288 39.5757 45.2292 39.5757 44.7799V43.432C40.8487 43.1325 41.7473 42.0841 41.7473 40.8112C41.7473 39.5382 40.8487 38.4898 39.5757 38.1903V35.6443C39.8753 35.7191 40.3245 35.8689 40.7738 36.1685C40.9236 36.2433 41.0734 36.3183 41.2231 36.3183C41.4477 36.3183 41.6724 36.2434 41.8221 36.0187C42.0468 35.7191 41.9719 35.195 41.6724 34.9704C40.8487 34.3712 40.0998 34.1466 39.5756 34.0717ZM38.078 37.8159C37.7036 37.5912 37.4041 37.2168 37.4041 36.7675C37.4041 36.3183 37.7037 35.9438 38.078 35.7192V37.8159ZM40.2496 40.8112C40.2496 41.2604 39.95 41.6349 39.5757 41.8595V39.6879C39.95 39.9125 40.2496 40.3619 40.2496 40.8112ZM28.9422 10.4087C29.2418 10.1091 29.2418 9.65987 28.9422 9.36039C28.6426 9.06091 28.1934 9.06081 27.8939 9.36039L20.2558 16.9235C19.8814 16.7737 19.507 16.624 19.1325 16.624C18.3088 16.624 17.6348 16.9984 17.1856 17.5974L10.5959 15.276C10.2215 15.1263 9.77221 15.3509 9.62243 15.7253C9.47264 16.0997 9.69727 16.549 10.0717 16.6988L16.6614 19.0202V19.095C16.6614 20.4429 17.7846 21.5662 19.1325 21.5662C20.4804 21.5662 21.6037 20.4429 21.6037 19.095C21.6037 18.7206 21.5289 18.2713 21.3041 17.9718L28.9422 10.4087ZM19.1326 20.0686C18.6084 20.0686 18.1591 19.6193 18.1591 19.0951C18.1591 18.5709 18.6084 18.1216 19.1326 18.1216C19.6568 18.1216 20.1061 18.5709 20.1061 19.0951C20.1061 19.6193 19.6567 20.0686 19.1326 20.0686Z" fill="white"></path></g><defs><clipPath id="clip0_40_31"><rect width="48" height="48" fill="white"></rect></clipPath></defs></svg> 