<?xml version="1.0" encoding="UTF-8"?> <svg xmlns="http://www.w3.org/2000/svg" width="48" height="48" viewBox="0 0 48 48" fill="none"><g clip-path="url(#clip0_40_40)"><path d="M44.2695 18.9107C45.1387 18.0635 45.4455 16.8201 45.0705 15.6658C44.6954 14.5114 43.7163 13.686 42.5152 13.5115L32.0124 11.9853C31.9108 11.9706 31.8143 11.9314 31.7313 11.871C31.6482 11.8107 31.5811 11.7311 31.5357 11.639L26.8388 2.12198C26.3017 1.03355 25.214 0.357422 24.0002 0.357422C22.7864 0.357422 21.6987 1.03355 21.1616 2.12198L16.4647 11.6391C16.4192 11.7311 16.3521 11.8107 16.269 11.8711C16.186 11.9314 16.0895 11.9706 15.9879 11.9854L5.48532 13.5115C4.2842 13.686 3.30517 14.5114 2.92998 15.6658C2.55479 16.8201 2.86173 18.0635 3.73098 18.9107L11.3308 26.3188C11.4043 26.3904 11.4593 26.4789 11.491 26.5765C11.5227 26.6742 11.5302 26.778 11.5129 26.8792L9.71879 37.3395C9.51367 38.5358 9.99611 39.722 10.978 40.4355C11.96 41.1491 13.2376 41.2412 14.3118 40.6766L23.7056 35.7379C23.7965 35.6901 23.8976 35.6651 24.0003 35.6651C24.103 35.6651 24.2041 35.6901 24.2949 35.7379L33.6889 40.6766C34.1561 40.9222 34.6617 41.0436 35.1649 41.0435C35.8183 41.0435 36.4676 40.8388 37.0224 40.4354C38.0043 39.7218 38.4868 38.5355 38.2816 37.3394L36.4875 26.8791C36.4702 26.7779 36.4777 26.6741 36.5094 26.5764C36.5411 26.4788 36.5961 26.3904 36.6696 26.3187L44.2695 18.9107ZM33.9918 27.3074L35.7859 37.7678C35.8459 38.1179 35.6298 38.3175 35.5341 38.3869C35.4383 38.4563 35.1816 38.6004 34.8673 38.435L25.4734 33.4964C25.0191 33.2575 24.5136 33.1327 24.0004 33.1327C23.4872 33.1326 22.9816 33.2574 22.5274 33.4963L13.1335 38.4348C12.8191 38.6001 12.5625 38.4562 12.4668 38.3867C12.3711 38.3173 12.1549 38.1177 12.215 37.7676L14.0091 27.3074C14.0959 26.8015 14.0584 26.2822 13.8998 25.7941C13.7412 25.3059 13.4662 24.8637 13.0987 24.5055L5.49882 17.0975C5.24448 16.8495 5.30204 16.561 5.3387 16.4485C5.37517 16.3359 5.49826 16.0686 5.84973 16.0176L16.3523 14.4915C16.8602 14.4177 17.3426 14.2215 17.7578 13.9199C18.173 13.6182 18.5087 13.2201 18.7358 12.7598L23.4327 3.24267C23.59 2.9242 23.8821 2.8898 24.0005 2.8898C24.1187 2.8898 24.4108 2.92411 24.5681 3.24267V3.24277L29.2651 12.7599C29.4922 13.2202 29.8278 13.6183 30.243 13.92C30.6582 14.2217 31.1405 14.4178 31.6484 14.4915L42.1511 16.0177C42.5026 16.0687 42.6256 16.336 42.6622 16.4486C42.6987 16.5612 42.7564 16.8497 42.5019 17.0976L34.9021 24.5056C34.5345 24.8638 34.2596 25.306 34.101 25.7941C33.9425 26.2822 33.905 26.8015 33.9918 27.3074ZM38.7922 2.12133C38.2263 1.71033 37.4346 1.83577 37.0236 2.40145L35.6795 4.25133C35.2685 4.81702 35.3938 5.60892 35.9596 6.01992C36.1755 6.1772 36.4357 6.26189 36.7029 6.2618C37.0944 6.2618 37.4805 6.08077 37.7282 5.73989L39.0723 3.89002C39.4833 3.32423 39.3579 2.53233 38.7922 2.12133ZM12.315 4.24383L10.9709 2.39395C10.56 1.82845 9.7682 1.70302 9.20232 2.11383C8.63664 2.52483 8.5112 3.31673 8.9222 3.88242L10.2663 5.7323C10.3837 5.89426 10.5379 6.02603 10.7162 6.1168C10.8945 6.20756 11.0918 6.25472 11.2918 6.25439C11.5499 6.25439 11.8104 6.17573 12.035 6.01242C12.6007 5.60152 12.7261 4.80961 12.315 4.24383ZM4.64551 28.7655C4.42942 28.1005 3.71514 27.7365 3.04998 27.9525L0.875262 28.6592C0.210105 28.8753 -0.153738 29.5898 0.0623553 30.2548C0.236168 30.79 0.732574 31.1301 1.26629 31.1301C1.39595 31.1301 1.52786 31.11 1.65789 31.0677L3.83261 30.361C4.49767 30.1449 4.86161 29.4306 4.64551 28.7655ZM24.0005 42.8239C23.3012 42.8239 22.7343 43.3908 22.7343 44.0901V46.3769C22.7343 47.0761 23.3012 47.643 24.0005 47.643C24.6998 47.643 25.2667 47.0761 25.2667 46.3769V44.0901C25.2667 43.3907 24.6999 42.8239 24.0005 42.8239ZM47.1248 28.661L44.95 27.9543C44.2852 27.7384 43.5706 28.1022 43.3545 28.7673C43.1384 29.4325 43.5023 30.1468 44.1674 30.3629L46.3421 31.0695C46.4686 31.1107 46.6007 31.1317 46.7336 31.1318C47.2674 31.1318 47.7639 30.7916 47.9377 30.2565C48.1538 29.5914 47.7898 28.8771 47.1248 28.661Z" fill="white"></path></g><defs><clipPath id="clip0_40_40"><rect width="48" height="48" fill="white"></rect></clipPath></defs></svg> 