<svg xmlns="http://www.w3.org/2000/svg" width="854" height="1068" viewBox="0 0 854 1068" fill="none">
<g opacity="0.2">
<mask id="path-1-inside-1_11_323" fill="white">
<path d="M0 1068V213.415C118.694 142.462 237.449 71.447 356.143 0.494016C340.115 130.729 324.025 261.025 307.997 391.26C387.827 391.26 467.658 391.26 547.55 391.26C531.275 260.84 515.061 130.42 498.786 0C617.17 71.1383 735.554 142.215 854 213.353C854 498.091 854 782.829 854 1067.57C771.942 996.306 689.945 925.044 607.887 853.782C595.387 747.384 582.886 640.985 570.385 534.587C474.898 533.599 379.349 532.611 283.862 531.623C272.352 639.688 260.903 747.754 249.393 855.82C166.282 926.403 83.1722 997.047 0 1067.63"/>
</mask>
<path d="M0 213.415L-0.513096 212.556L-1 212.847V213.415H0ZM356.143 0.494016L357.135 0.616164L357.385 -1.41367L355.63 -0.364316L356.143 0.494016ZM307.997 391.26L307.004 391.138L306.866 392.26H307.997V391.26ZM547.55 391.26V392.26H548.683L548.542 391.137L547.55 391.26ZM498.786 0L499.301 -0.857149L497.539 -1.9159L497.793 0.123832L498.786 0ZM854 213.353H855V212.787L854.515 212.496L854 213.353ZM854 1067.57L853.344 1068.32L855 1069.76V1067.57H854ZM607.887 853.782L606.894 853.899L606.939 854.284L607.231 854.537L607.887 853.782ZM570.385 534.587L571.379 534.47L571.276 533.596L570.396 533.587L570.385 534.587ZM283.862 531.623L283.872 530.623L282.964 530.613L282.868 531.517L283.862 531.623ZM249.393 855.82L250.04 856.583L250.345 856.324L250.387 855.926L249.393 855.82ZM1 1068V213.415H-1V1068H1ZM0.513096 214.273C59.8599 178.797 119.222 143.305 178.585 107.813C237.947 72.3207 297.309 36.8288 356.656 1.35235L355.63 -0.364316C296.283 35.1122 236.921 70.6042 177.558 106.096C118.196 141.588 58.8337 177.08 -0.513096 212.556L0.513096 214.273ZM355.15 0.371867C347.136 65.4892 339.107 130.622 331.077 195.755C323.048 260.888 315.018 326.021 307.004 391.138L308.99 391.383C317.003 326.265 325.033 261.132 333.062 196C341.092 130.867 349.121 65.7337 357.135 0.616164L355.15 0.371867ZM307.997 392.26C308.153 392.26 308.309 392.26 308.465 392.26C308.621 392.26 308.777 392.26 308.932 392.26C309.088 392.26 309.244 392.26 309.4 392.26C309.556 392.26 309.712 392.26 309.868 392.26C310.024 392.26 310.18 392.26 310.336 392.26C310.492 392.26 310.648 392.26 310.804 392.26C310.959 392.26 311.115 392.26 311.271 392.26C311.427 392.26 311.583 392.26 311.739 392.26C311.895 392.26 312.051 392.26 312.207 392.26C312.363 392.26 312.519 392.26 312.675 392.26C312.83 392.26 312.986 392.26 313.142 392.26C313.298 392.26 313.454 392.26 313.61 392.26C313.766 392.26 313.922 392.26 314.078 392.26C314.234 392.26 314.39 392.26 314.546 392.26C314.702 392.26 314.857 392.26 315.013 392.26C315.169 392.26 315.325 392.26 315.481 392.26C315.637 392.26 315.793 392.26 315.949 392.26C316.105 392.26 316.261 392.26 316.417 392.26C316.573 392.26 316.728 392.26 316.884 392.26C317.04 392.26 317.196 392.26 317.352 392.26C317.508 392.26 317.664 392.26 317.82 392.26C317.976 392.26 318.132 392.26 318.288 392.26C318.444 392.26 318.599 392.26 318.755 392.26C318.911 392.26 319.067 392.26 319.223 392.26C319.379 392.26 319.535 392.26 319.691 392.26C319.847 392.26 320.003 392.26 320.159 392.26C320.315 392.26 320.471 392.26 320.626 392.26C320.782 392.26 320.938 392.26 321.094 392.26C321.25 392.26 321.406 392.26 321.562 392.26C321.718 392.26 321.874 392.26 322.03 392.26C322.186 392.26 322.342 392.26 322.497 392.26C322.653 392.26 322.809 392.26 322.965 392.26C323.121 392.26 323.277 392.26 323.433 392.26C323.589 392.26 323.745 392.26 323.901 392.26C324.057 392.26 324.213 392.26 324.368 392.26C324.524 392.26 324.68 392.26 324.836 392.26C324.992 392.26 325.148 392.26 325.304 392.26C325.46 392.26 325.616 392.26 325.772 392.26C325.928 392.26 326.084 392.26 326.24 392.26C326.395 392.26 326.551 392.26 326.707 392.26C326.863 392.26 327.019 392.26 327.175 392.26C327.331 392.26 327.487 392.26 327.643 392.26C327.799 392.26 327.955 392.26 328.111 392.26C328.266 392.26 328.422 392.26 328.578 392.26C328.734 392.26 328.89 392.26 329.046 392.26C329.202 392.26 329.358 392.26 329.514 392.26C329.67 392.26 329.826 392.26 329.982 392.26C330.138 392.26 330.293 392.26 330.449 392.26C330.605 392.26 330.761 392.26 330.917 392.26C331.073 392.26 331.229 392.26 331.385 392.26C331.541 392.26 331.697 392.26 331.853 392.26C332.009 392.26 332.164 392.26 332.32 392.26C332.476 392.26 332.632 392.26 332.788 392.26C332.944 392.26 333.1 392.26 333.256 392.26C333.412 392.26 333.568 392.26 333.724 392.26C333.88 392.26 334.036 392.26 334.191 392.26C334.347 392.26 334.503 392.26 334.659 392.26C334.815 392.26 334.971 392.26 335.127 392.26C335.283 392.26 335.439 392.26 335.595 392.26C335.751 392.26 335.907 392.26 336.062 392.26C336.218 392.26 336.374 392.26 336.53 392.26C336.686 392.26 336.842 392.26 336.998 392.26C337.154 392.26 337.31 392.26 337.466 392.26C337.622 392.26 337.778 392.26 337.934 392.26C338.089 392.26 338.245 392.26 338.401 392.26C338.557 392.26 338.713 392.26 338.869 392.26C339.025 392.26 339.181 392.26 339.337 392.26C339.493 392.26 339.649 392.26 339.805 392.26C339.961 392.26 340.116 392.26 340.272 392.26C340.428 392.26 340.584 392.26 340.74 392.26C340.896 392.26 341.052 392.26 341.208 392.26C341.364 392.26 341.52 392.26 341.676 392.26C341.832 392.26 341.987 392.26 342.143 392.26C342.299 392.26 342.455 392.26 342.611 392.26C342.767 392.26 342.923 392.26 343.079 392.26C343.235 392.26 343.391 392.26 343.547 392.26C343.703 392.26 343.859 392.26 344.014 392.26C344.17 392.26 344.326 392.26 344.482 392.26C344.638 392.26 344.794 392.26 344.95 392.26C345.106 392.26 345.262 392.26 345.418 392.26C345.574 392.26 345.73 392.26 345.885 392.26C346.041 392.26 346.197 392.26 346.353 392.26C346.509 392.26 346.665 392.26 346.821 392.26C346.977 392.26 347.133 392.26 347.289 392.26C347.445 392.26 347.601 392.26 347.757 392.26C347.913 392.26 348.068 392.26 348.224 392.26C348.38 392.26 348.536 392.26 348.692 392.26C348.848 392.26 349.004 392.26 349.16 392.26C349.316 392.26 349.472 392.26 349.628 392.26C349.784 392.26 349.939 392.26 350.095 392.26C350.251 392.26 350.407 392.26 350.563 392.26C350.719 392.26 350.875 392.26 351.031 392.26C351.187 392.26 351.343 392.26 351.499 392.26C351.655 392.26 351.811 392.26 351.966 392.26C352.122 392.26 352.278 392.26 352.434 392.26C352.59 392.26 352.746 392.26 352.902 392.26C353.058 392.26 353.214 392.26 353.37 392.26C353.526 392.26 353.682 392.26 353.838 392.26C353.993 392.26 354.149 392.26 354.305 392.26C354.461 392.26 354.617 392.26 354.773 392.26C354.929 392.26 355.085 392.26 355.241 392.26C355.397 392.26 355.553 392.26 355.709 392.26C355.865 392.26 356.02 392.26 356.176 392.26C356.332 392.26 356.488 392.26 356.644 392.26C356.8 392.26 356.956 392.26 357.112 392.26C357.268 392.26 357.424 392.26 357.58 392.26C357.736 392.26 357.892 392.26 358.047 392.26C358.203 392.26 358.359 392.26 358.515 392.26C358.671 392.26 358.827 392.26 358.983 392.26C359.139 392.26 359.295 392.26 359.451 392.26C359.607 392.26 359.763 392.26 359.919 392.26C360.074 392.26 360.23 392.26 360.386 392.26C360.542 392.26 360.698 392.26 360.854 392.26C361.01 392.26 361.166 392.26 361.322 392.26C361.478 392.26 361.634 392.26 361.79 392.26C361.946 392.26 362.102 392.26 362.257 392.26C362.413 392.26 362.569 392.26 362.725 392.26C362.881 392.26 363.037 392.26 363.193 392.26C363.349 392.26 363.505 392.26 363.661 392.26C363.817 392.26 363.973 392.26 364.129 392.26C364.284 392.26 364.44 392.26 364.596 392.26C364.752 392.26 364.908 392.26 365.064 392.26C365.22 392.26 365.376 392.26 365.532 392.26C365.688 392.26 365.844 392.26 366 392.26C366.156 392.26 366.312 392.26 366.467 392.26C366.623 392.26 366.779 392.26 366.935 392.26C367.091 392.26 367.247 392.26 367.403 392.26C367.559 392.26 367.715 392.26 367.871 392.26C368.027 392.26 368.183 392.26 368.339 392.26C368.494 392.26 368.65 392.26 368.806 392.26C368.962 392.26 369.118 392.26 369.274 392.26C369.43 392.26 369.586 392.26 369.742 392.26C369.898 392.26 370.054 392.26 370.21 392.26C370.366 392.26 370.522 392.26 370.677 392.26C370.833 392.26 370.989 392.26 371.145 392.26C371.301 392.26 371.457 392.26 371.613 392.26C371.769 392.26 371.925 392.26 372.081 392.26C372.237 392.26 372.393 392.26 372.549 392.26C372.705 392.26 372.86 392.26 373.016 392.26C373.172 392.26 373.328 392.26 373.484 392.26C373.64 392.26 373.796 392.26 373.952 392.26C374.108 392.26 374.264 392.26 374.42 392.26C374.576 392.26 374.732 392.26 374.888 392.26C375.043 392.26 375.199 392.26 375.355 392.26C375.511 392.26 375.667 392.26 375.823 392.26C375.979 392.26 376.135 392.26 376.291 392.26C376.447 392.26 376.603 392.26 376.759 392.26C376.915 392.26 377.07 392.26 377.226 392.26C377.382 392.26 377.538 392.26 377.694 392.26C377.85 392.26 378.006 392.26 378.162 392.26C378.318 392.26 378.474 392.26 378.63 392.26C378.786 392.26 378.942 392.26 379.098 392.26C379.254 392.26 379.409 392.26 379.565 392.26C379.721 392.26 379.877 392.26 380.033 392.26C380.189 392.26 380.345 392.26 380.501 392.26C380.657 392.26 380.813 392.26 380.969 392.26C381.125 392.26 381.281 392.26 381.437 392.26C381.592 392.26 381.748 392.26 381.904 392.26C382.06 392.26 382.216 392.26 382.372 392.26C382.528 392.26 382.684 392.26 382.84 392.26C382.996 392.26 383.152 392.26 383.308 392.26C383.464 392.26 383.62 392.26 383.775 392.26C383.931 392.26 384.087 392.26 384.243 392.26C384.399 392.26 384.555 392.26 384.711 392.26C384.867 392.26 385.023 392.26 385.179 392.26C385.335 392.26 385.491 392.26 385.647 392.26C385.803 392.26 385.959 392.26 386.114 392.26C386.27 392.26 386.426 392.26 386.582 392.26C386.738 392.26 386.894 392.26 387.05 392.26C387.206 392.26 387.362 392.26 387.518 392.26C387.674 392.26 387.83 392.26 387.986 392.26C388.142 392.26 388.298 392.26 388.453 392.26C388.609 392.26 388.765 392.26 388.921 392.26C389.077 392.26 389.233 392.26 389.389 392.26C389.545 392.26 389.701 392.26 389.857 392.26C390.013 392.26 390.169 392.26 390.325 392.26C390.481 392.26 390.637 392.26 390.792 392.26C390.948 392.26 391.104 392.26 391.26 392.26C391.416 392.26 391.572 392.26 391.728 392.26C391.884 392.26 392.04 392.26 392.196 392.26C392.352 392.26 392.508 392.26 392.664 392.26C392.82 392.26 392.975 392.26 393.131 392.26C393.287 392.26 393.443 392.26 393.599 392.26C393.755 392.26 393.911 392.26 394.067 392.26C394.223 392.26 394.379 392.26 394.535 392.26C394.691 392.26 394.847 392.26 395.003 392.26C395.159 392.26 395.315 392.26 395.47 392.26C395.626 392.26 395.782 392.26 395.938 392.26C396.094 392.26 396.25 392.26 396.406 392.26C396.562 392.26 396.718 392.26 396.874 392.26C397.03 392.26 397.186 392.26 397.342 392.26C397.498 392.26 397.654 392.26 397.809 392.26C397.965 392.26 398.121 392.26 398.277 392.26C398.433 392.26 398.589 392.26 398.745 392.26C398.901 392.26 399.057 392.26 399.213 392.26C399.369 392.26 399.525 392.26 399.681 392.26C399.837 392.26 399.993 392.26 400.149 392.26C400.304 392.26 400.46 392.26 400.616 392.26C400.772 392.26 400.928 392.26 401.084 392.26C401.24 392.26 401.396 392.26 401.552 392.26C401.708 392.26 401.864 392.26 402.02 392.26C402.176 392.26 402.332 392.26 402.488 392.26C402.644 392.26 402.799 392.26 402.955 392.26C403.111 392.26 403.267 392.26 403.423 392.26C403.579 392.26 403.735 392.26 403.891 392.26C404.047 392.26 404.203 392.26 404.359 392.26C404.515 392.26 404.671 392.26 404.827 392.26C404.983 392.26 405.139 392.26 405.294 392.26C405.45 392.26 405.606 392.26 405.762 392.26C405.918 392.26 406.074 392.26 406.23 392.26C406.386 392.26 406.542 392.26 406.698 392.26C406.854 392.26 407.01 392.26 407.166 392.26C407.322 392.26 407.478 392.26 407.634 392.26C407.789 392.26 407.945 392.26 408.101 392.26C408.257 392.26 408.413 392.26 408.569 392.26C408.725 392.26 408.881 392.26 409.037 392.26C409.193 392.26 409.349 392.26 409.505 392.26C409.661 392.26 409.817 392.26 409.973 392.26C410.129 392.26 410.285 392.26 410.44 392.26C410.596 392.26 410.752 392.26 410.908 392.26C411.064 392.26 411.22 392.26 411.376 392.26C411.532 392.26 411.688 392.26 411.844 392.26C412 392.26 412.156 392.26 412.312 392.26C412.468 392.26 412.624 392.26 412.78 392.26C412.936 392.26 413.091 392.26 413.247 392.26C413.403 392.26 413.559 392.26 413.715 392.26C413.871 392.26 414.027 392.26 414.183 392.26C414.339 392.26 414.495 392.26 414.651 392.26C414.807 392.26 414.963 392.26 415.119 392.26C415.275 392.26 415.431 392.26 415.587 392.26C415.743 392.26 415.898 392.26 416.054 392.26C416.21 392.26 416.366 392.26 416.522 392.26C416.678 392.26 416.834 392.26 416.99 392.26C417.146 392.26 417.302 392.26 417.458 392.26C417.614 392.26 417.77 392.26 417.926 392.26C418.082 392.26 418.238 392.26 418.394 392.26C418.549 392.26 418.705 392.26 418.861 392.26C419.017 392.26 419.173 392.26 419.329 392.26C419.485 392.26 419.641 392.26 419.797 392.26C419.953 392.26 420.109 392.26 420.265 392.26C420.421 392.26 420.577 392.26 420.733 392.26C420.889 392.26 421.045 392.26 421.201 392.26C421.357 392.26 421.512 392.26 421.668 392.26C421.824 392.26 421.98 392.26 422.136 392.26C422.292 392.26 422.448 392.26 422.604 392.26C422.76 392.26 422.916 392.26 423.072 392.26C423.228 392.26 423.384 392.26 423.54 392.26C423.696 392.26 423.852 392.26 424.008 392.26C424.164 392.26 424.319 392.26 424.475 392.26C424.631 392.26 424.787 392.26 424.943 392.26C425.099 392.26 425.255 392.26 425.411 392.26C425.567 392.26 425.723 392.26 425.879 392.26C426.035 392.26 426.191 392.26 426.347 392.26C426.503 392.26 426.659 392.26 426.815 392.26C426.971 392.26 427.127 392.26 427.283 392.26C427.438 392.26 427.594 392.26 427.75 392.26C427.906 392.26 428.062 392.26 428.218 392.26C428.374 392.26 428.53 392.26 428.686 392.26C428.842 392.26 428.998 392.26 429.154 392.26C429.31 392.26 429.466 392.26 429.622 392.26C429.778 392.26 429.934 392.26 430.09 392.26C430.246 392.26 430.401 392.26 430.557 392.26C430.713 392.26 430.869 392.26 431.025 392.26C431.181 392.26 431.337 392.26 431.493 392.26C431.649 392.26 431.805 392.26 431.961 392.26C432.117 392.26 432.273 392.26 432.429 392.26C432.585 392.26 432.741 392.26 432.897 392.26C433.053 392.26 433.209 392.26 433.365 392.26C433.521 392.26 433.676 392.26 433.832 392.26C433.988 392.26 434.144 392.26 434.3 392.26C434.456 392.26 434.612 392.26 434.768 392.26C434.924 392.26 435.08 392.26 435.236 392.26C435.392 392.26 435.548 392.26 435.704 392.26C435.86 392.26 436.016 392.26 436.172 392.26C436.328 392.26 436.484 392.26 436.64 392.26C436.796 392.26 436.951 392.26 437.107 392.26C437.263 392.26 437.419 392.26 437.575 392.26C437.731 392.26 437.887 392.26 438.043 392.26C438.199 392.26 438.355 392.26 438.511 392.26C438.667 392.26 438.823 392.26 438.979 392.26C439.135 392.26 439.291 392.26 439.447 392.26C439.603 392.26 439.759 392.26 439.915 392.26C440.071 392.26 440.227 392.26 440.383 392.26C440.538 392.26 440.694 392.26 440.85 392.26C441.006 392.26 441.162 392.26 441.318 392.26C441.474 392.26 441.63 392.26 441.786 392.26C441.942 392.26 442.098 392.26 442.254 392.26C442.41 392.26 442.566 392.26 442.722 392.26C442.878 392.26 443.034 392.26 443.19 392.26C443.346 392.26 443.502 392.26 443.658 392.26C443.814 392.26 443.969 392.26 444.125 392.26C444.281 392.26 444.437 392.26 444.593 392.26C444.749 392.26 444.905 392.26 445.061 392.26C445.217 392.26 445.373 392.26 445.529 392.26C445.685 392.26 445.841 392.26 445.997 392.26C446.153 392.26 446.309 392.26 446.465 392.26C446.621 392.26 446.777 392.26 446.933 392.26C447.089 392.26 447.245 392.26 447.401 392.26C447.557 392.26 447.712 392.26 447.868 392.26C448.024 392.26 448.18 392.26 448.336 392.26C448.492 392.26 448.648 392.26 448.804 392.26C448.96 392.26 449.116 392.26 449.272 392.26C449.428 392.26 449.584 392.26 449.74 392.26C449.896 392.26 450.052 392.26 450.208 392.26C450.364 392.26 450.52 392.26 450.676 392.26C450.832 392.26 450.988 392.26 451.144 392.26C451.3 392.26 451.456 392.26 451.612 392.26C451.767 392.26 451.923 392.26 452.079 392.26C452.235 392.26 452.391 392.26 452.547 392.26C452.703 392.26 452.859 392.26 453.015 392.26C453.171 392.26 453.327 392.26 453.483 392.26C453.639 392.26 453.795 392.26 453.951 392.26C454.107 392.26 454.263 392.26 454.419 392.26C454.575 392.26 454.731 392.26 454.887 392.26C455.043 392.26 455.199 392.26 455.355 392.26C455.511 392.26 455.667 392.26 455.823 392.26C455.979 392.26 456.134 392.26 456.29 392.26C456.446 392.26 456.602 392.26 456.758 392.26C456.914 392.26 457.07 392.26 457.226 392.26C457.382 392.26 457.538 392.26 457.694 392.26C457.85 392.26 458.006 392.26 458.162 392.26C458.318 392.26 458.474 392.26 458.63 392.26C458.786 392.26 458.942 392.26 459.098 392.26C459.254 392.26 459.41 392.26 459.566 392.26C459.722 392.26 459.878 392.26 460.034 392.26C460.19 392.26 460.346 392.26 460.502 392.26C460.658 392.26 460.813 392.26 460.969 392.26C461.125 392.26 461.281 392.26 461.437 392.26C461.593 392.26 461.749 392.26 461.905 392.26C462.061 392.26 462.217 392.26 462.373 392.26C462.529 392.26 462.685 392.26 462.841 392.26C462.997 392.26 463.153 392.26 463.309 392.26C463.465 392.26 463.621 392.26 463.777 392.26C463.933 392.26 464.089 392.26 464.245 392.26C464.401 392.26 464.557 392.26 464.713 392.26C464.869 392.26 465.025 392.26 465.181 392.26C465.337 392.26 465.493 392.26 465.649 392.26C465.805 392.26 465.96 392.26 466.116 392.26C466.272 392.26 466.428 392.26 466.584 392.26C466.74 392.26 466.896 392.26 467.052 392.26C467.208 392.26 467.364 392.26 467.52 392.26C467.676 392.26 467.832 392.26 467.988 392.26C468.144 392.26 468.3 392.26 468.456 392.26C468.612 392.26 468.768 392.26 468.924 392.26C469.08 392.26 469.236 392.26 469.392 392.26C469.548 392.26 469.704 392.26 469.86 392.26C470.016 392.26 470.172 392.26 470.328 392.26C470.484 392.26 470.64 392.26 470.796 392.26C470.952 392.26 471.108 392.26 471.264 392.26C471.42 392.26 471.576 392.26 471.731 392.26C471.887 392.26 472.043 392.26 472.199 392.26C472.355 392.26 472.511 392.26 472.667 392.26C472.823 392.26 472.979 392.26 473.135 392.26C473.291 392.26 473.447 392.26 473.603 392.26C473.759 392.26 473.915 392.26 474.071 392.26C474.227 392.26 474.383 392.26 474.539 392.26C474.695 392.26 474.851 392.26 475.007 392.26C475.163 392.26 475.319 392.26 475.475 392.26C475.631 392.26 475.787 392.26 475.943 392.26C476.099 392.26 476.255 392.26 476.411 392.26C476.567 392.26 476.723 392.26 476.879 392.26C477.035 392.26 477.191 392.26 477.347 392.26C477.503 392.26 477.659 392.26 477.815 392.26C477.971 392.26 478.127 392.26 478.283 392.26C478.439 392.26 478.595 392.26 478.75 392.26C478.906 392.26 479.062 392.26 479.218 392.26C479.374 392.26 479.53 392.26 479.686 392.26C479.842 392.26 479.998 392.26 480.154 392.26C480.31 392.26 480.466 392.26 480.622 392.26C480.778 392.26 480.934 392.26 481.09 392.26C481.246 392.26 481.402 392.26 481.558 392.26C481.714 392.26 481.87 392.26 482.026 392.26C482.182 392.26 482.338 392.26 482.494 392.26C482.65 392.26 482.806 392.26 482.962 392.26C483.118 392.26 483.274 392.26 483.43 392.26C483.586 392.26 483.742 392.26 483.898 392.26C484.054 392.26 484.21 392.26 484.366 392.26C484.522 392.26 484.678 392.26 484.834 392.26C484.99 392.26 485.146 392.26 485.302 392.26C485.458 392.26 485.614 392.26 485.77 392.26C485.926 392.26 486.082 392.26 486.238 392.26C486.394 392.26 486.55 392.26 486.706 392.26C486.862 392.26 487.018 392.26 487.174 392.26C487.33 392.26 487.486 392.26 487.642 392.26C487.798 392.26 487.954 392.26 488.109 392.26C488.265 392.26 488.421 392.26 488.577 392.26C488.733 392.26 488.889 392.26 489.045 392.26C489.201 392.26 489.357 392.26 489.513 392.26C489.669 392.26 489.825 392.26 489.981 392.26C490.137 392.26 490.293 392.26 490.449 392.26C490.605 392.26 490.761 392.26 490.917 392.26C491.073 392.26 491.229 392.26 491.385 392.26C491.541 392.26 491.697 392.26 491.853 392.26C492.009 392.26 492.165 392.26 492.321 392.26C492.477 392.26 492.633 392.26 492.789 392.26C492.945 392.26 493.101 392.26 493.257 392.26C493.413 392.26 493.569 392.26 493.725 392.26C493.881 392.26 494.037 392.26 494.193 392.26C494.349 392.26 494.505 392.26 494.661 392.26C494.817 392.26 494.973 392.26 495.129 392.26C495.285 392.26 495.441 392.26 495.597 392.26C495.753 392.26 495.909 392.26 496.065 392.26C496.221 392.26 496.377 392.26 496.533 392.26C496.689 392.26 496.845 392.26 497.001 392.26C497.157 392.26 497.313 392.26 497.469 392.26C497.625 392.26 497.781 392.26 497.937 392.26C498.093 392.26 498.249 392.26 498.405 392.26C498.561 392.26 498.717 392.26 498.873 392.26C499.029 392.26 499.185 392.26 499.341 392.26C499.497 392.26 499.653 392.26 499.809 392.26C499.965 392.26 500.121 392.26 500.277 392.26C500.433 392.26 500.589 392.26 500.745 392.26C500.901 392.26 501.057 392.26 501.213 392.26C501.369 392.26 501.525 392.26 501.681 392.26C501.837 392.26 501.993 392.26 502.149 392.26C502.305 392.26 502.461 392.26 502.617 392.26C502.773 392.26 502.929 392.26 503.085 392.26C503.241 392.26 503.397 392.26 503.553 392.26C503.709 392.26 503.865 392.26 504.021 392.26C504.177 392.26 504.333 392.26 504.489 392.26C504.645 392.26 504.801 392.26 504.957 392.26C505.113 392.26 505.269 392.26 505.425 392.26C505.581 392.26 505.737 392.26 505.893 392.26C506.049 392.26 506.205 392.26 506.361 392.26C506.517 392.26 506.673 392.26 506.829 392.26C506.985 392.26 507.141 392.26 507.297 392.26C507.453 392.26 507.609 392.26 507.765 392.26C507.921 392.26 508.077 392.26 508.233 392.26C508.389 392.26 508.545 392.26 508.701 392.26C508.857 392.26 509.013 392.26 509.169 392.26C509.325 392.26 509.481 392.26 509.637 392.26C509.793 392.26 509.949 392.26 510.105 392.26C510.261 392.26 510.417 392.26 510.573 392.26C510.729 392.26 510.885 392.26 511.041 392.26C511.197 392.26 511.353 392.26 511.509 392.26C511.665 392.26 511.821 392.26 511.977 392.26C512.133 392.26 512.289 392.26 512.445 392.26C512.601 392.26 512.757 392.26 512.913 392.26C513.069 392.26 513.225 392.26 513.381 392.26C513.537 392.26 513.693 392.26 513.849 392.26C514.005 392.26 514.161 392.26 514.317 392.26C514.473 392.26 514.629 392.26 514.785 392.26C514.941 392.26 515.097 392.26 515.253 392.26C515.409 392.26 515.565 392.26 515.721 392.26C515.877 392.26 516.033 392.26 516.189 392.26C516.345 392.26 516.501 392.26 516.657 392.26C516.813 392.26 516.969 392.26 517.125 392.26C517.281 392.26 517.437 392.26 517.593 392.26C517.749 392.26 517.905 392.26 518.061 392.26C518.217 392.26 518.373 392.26 518.529 392.26C518.685 392.26 518.841 392.26 518.997 392.26C519.153 392.26 519.309 392.26 519.465 392.26C519.621 392.26 519.777 392.26 519.933 392.26C520.089 392.26 520.245 392.26 520.402 392.26C520.558 392.26 520.714 392.26 520.87 392.26C521.026 392.26 521.182 392.26 521.338 392.26C521.494 392.26 521.65 392.26 521.806 392.26C521.962 392.26 522.118 392.26 522.274 392.26C522.43 392.26 522.586 392.26 522.742 392.26C522.898 392.26 523.054 392.26 523.21 392.26C523.366 392.26 523.522 392.26 523.678 392.26C523.834 392.26 523.99 392.26 524.146 392.26C524.302 392.26 524.458 392.26 524.614 392.26C524.77 392.26 524.926 392.26 525.082 392.26C525.238 392.26 525.394 392.26 525.55 392.26C525.706 392.26 525.862 392.26 526.018 392.26C526.174 392.26 526.33 392.26 526.486 392.26C526.642 392.26 526.798 392.26 526.954 392.26C527.11 392.26 527.266 392.26 527.422 392.26C527.578 392.26 527.734 392.26 527.89 392.26C528.046 392.26 528.202 392.26 528.358 392.26C528.514 392.26 528.67 392.26 528.826 392.26C528.982 392.26 529.139 392.26 529.295 392.26C529.451 392.26 529.607 392.26 529.763 392.26C529.919 392.26 530.075 392.26 530.231 392.26C530.387 392.26 530.543 392.26 530.699 392.26C530.855 392.26 531.011 392.26 531.167 392.26C531.323 392.26 531.479 392.26 531.635 392.26C531.791 392.26 531.947 392.26 532.103 392.26C532.259 392.26 532.415 392.26 532.571 392.26C532.727 392.26 532.883 392.26 533.039 392.26C533.195 392.26 533.351 392.26 533.507 392.26C533.663 392.26 533.819 392.26 533.975 392.26C534.131 392.26 534.287 392.26 534.443 392.26C534.599 392.26 534.755 392.26 534.911 392.26C535.067 392.26 535.224 392.26 535.38 392.26C535.536 392.26 535.692 392.26 535.848 392.26C536.004 392.26 536.16 392.26 536.316 392.26C536.472 392.26 536.628 392.26 536.784 392.26C536.94 392.26 537.096 392.26 537.252 392.26C537.408 392.26 537.564 392.26 537.72 392.26C537.876 392.26 538.032 392.26 538.188 392.26C538.344 392.26 538.5 392.26 538.656 392.26C538.812 392.26 538.968 392.26 539.124 392.26C539.28 392.26 539.436 392.26 539.592 392.26C539.748 392.26 539.904 392.26 540.06 392.26C540.216 392.26 540.372 392.26 540.529 392.26C540.685 392.26 540.841 392.26 540.997 392.26C541.153 392.26 541.309 392.26 541.465 392.26C541.621 392.26 541.777 392.26 541.933 392.26C542.089 392.26 542.245 392.26 542.401 392.26C542.557 392.26 542.713 392.26 542.869 392.26C543.025 392.26 543.181 392.26 543.337 392.26C543.493 392.26 543.649 392.26 543.805 392.26C543.961 392.26 544.117 392.26 544.273 392.26C544.429 392.26 544.585 392.26 544.741 392.26C544.897 392.26 545.054 392.26 545.21 392.26C545.366 392.26 545.522 392.26 545.678 392.26C545.834 392.26 545.99 392.26 546.146 392.26C546.302 392.26 546.458 392.26 546.614 392.26C546.77 392.26 546.926 392.26 547.082 392.26C547.238 392.26 547.394 392.26 547.55 392.26V390.26C547.394 390.26 547.238 390.26 547.082 390.26C546.926 390.26 546.77 390.26 546.614 390.26C546.458 390.26 546.302 390.26 546.146 390.26C545.99 390.26 545.834 390.26 545.678 390.26C545.522 390.26 545.366 390.26 545.21 390.26C545.054 390.26 544.897 390.26 544.741 390.26C544.585 390.26 544.429 390.26 544.273 390.26C544.117 390.26 543.961 390.26 543.805 390.26C543.649 390.26 543.493 390.26 543.337 390.26C543.181 390.26 543.025 390.26 542.869 390.26C542.713 390.26 542.557 390.26 542.401 390.26C542.245 390.26 542.089 390.26 541.933 390.26C541.777 390.26 541.621 390.26 541.465 390.26C541.309 390.26 541.153 390.26 540.997 390.26C540.841 390.26 540.685 390.26 540.529 390.26C540.372 390.26 540.216 390.26 540.06 390.26C539.904 390.26 539.748 390.26 539.592 390.26C539.436 390.26 539.28 390.26 539.124 390.26C538.968 390.26 538.812 390.26 538.656 390.26C538.5 390.26 538.344 390.26 538.188 390.26C538.032 390.26 537.876 390.26 537.72 390.26C537.564 390.26 537.408 390.26 537.252 390.26C537.096 390.26 536.94 390.26 536.784 390.26C536.628 390.26 536.472 390.26 536.316 390.26C536.16 390.26 536.004 390.26 535.848 390.26C535.692 390.26 535.536 390.26 535.38 390.26C535.224 390.26 535.067 390.26 534.911 390.26C534.755 390.26 534.599 390.26 534.443 390.26C534.287 390.26 534.131 390.26 533.975 390.26C533.819 390.26 533.663 390.26 533.507 390.26C533.351 390.26 533.195 390.26 533.039 390.26C532.883 390.26 532.727 390.26 532.571 390.26C532.415 390.26 532.259 390.26 532.103 390.26C531.947 390.26 531.791 390.26 531.635 390.26C531.479 390.26 531.323 390.26 531.167 390.26C531.011 390.26 530.855 390.26 530.699 390.26C530.543 390.26 530.387 390.26 530.231 390.26C530.075 390.26 529.919 390.26 529.763 390.26C529.607 390.26 529.451 390.26 529.295 390.26C529.139 390.26 528.982 390.26 528.826 390.26C528.67 390.26 528.514 390.26 528.358 390.26C528.202 390.26 528.046 390.26 527.89 390.26C527.734 390.26 527.578 390.26 527.422 390.26C527.266 390.26 527.11 390.26 526.954 390.26C526.798 390.26 526.642 390.26 526.486 390.26C526.33 390.26 526.174 390.26 526.018 390.26C525.862 390.26 525.706 390.26 525.55 390.26C525.394 390.26 525.238 390.26 525.082 390.26C524.926 390.26 524.77 390.26 524.614 390.26C524.458 390.26 524.302 390.26 524.146 390.26C523.99 390.26 523.834 390.26 523.678 390.26C523.522 390.26 523.366 390.26 523.21 390.26C523.054 390.26 522.898 390.26 522.742 390.26C522.586 390.26 522.43 390.26 522.274 390.26C522.118 390.26 521.962 390.26 521.806 390.26C521.65 390.26 521.494 390.26 521.338 390.26C521.182 390.26 521.026 390.26 520.87 390.26C520.714 390.26 520.558 390.26 520.402 390.26C520.245 390.26 520.089 390.26 519.933 390.26C519.777 390.26 519.621 390.26 519.465 390.26C519.309 390.26 519.153 390.26 518.997 390.26C518.841 390.26 518.685 390.26 518.529 390.26C518.373 390.26 518.217 390.26 518.061 390.26C517.905 390.26 517.749 390.26 517.593 390.26C517.437 390.26 517.281 390.26 517.125 390.26C516.969 390.26 516.813 390.26 516.657 390.26C516.501 390.26 516.345 390.26 516.189 390.26C516.033 390.26 515.877 390.26 515.721 390.26C515.565 390.26 515.409 390.26 515.253 390.26C515.097 390.26 514.941 390.26 514.785 390.26C514.629 390.26 514.473 390.26 514.317 390.26C514.161 390.26 514.005 390.26 513.849 390.26C513.693 390.26 513.537 390.26 513.381 390.26C513.225 390.26 513.069 390.26 512.913 390.26C512.757 390.26 512.601 390.26 512.445 390.26C512.289 390.26 512.133 390.26 511.977 390.26C511.821 390.26 511.665 390.26 511.509 390.26C511.353 390.26 511.197 390.26 511.041 390.26C510.885 390.26 510.729 390.26 510.573 390.26C510.417 390.26 510.261 390.26 510.105 390.26C509.949 390.26 509.793 390.26 509.637 390.26C509.481 390.26 509.325 390.26 509.169 390.26C509.013 390.26 508.857 390.26 508.701 390.26C508.545 390.26 508.389 390.26 508.233 390.26C508.077 390.26 507.921 390.26 507.765 390.26C507.609 390.26 507.453 390.26 507.297 390.26C507.141 390.26 506.985 390.26 506.829 390.26C506.673 390.26 506.517 390.26 506.361 390.26C506.205 390.26 506.049 390.26 505.893 390.26C505.737 390.26 505.581 390.26 505.425 390.26C505.269 390.26 505.113 390.26 504.957 390.26C504.801 390.26 504.645 390.26 504.489 390.26C504.333 390.26 504.177 390.26 504.021 390.26C503.865 390.26 503.709 390.26 503.553 390.26C503.397 390.26 503.241 390.26 503.085 390.26C502.929 390.26 502.773 390.26 502.617 390.26C502.461 390.26 502.305 390.26 502.149 390.26C501.993 390.26 501.837 390.26 501.681 390.26C501.525 390.26 501.369 390.26 501.213 390.26C501.057 390.26 500.901 390.26 500.745 390.26C500.589 390.26 500.433 390.26 500.277 390.26C500.121 390.26 499.965 390.26 499.809 390.26C499.653 390.26 499.497 390.26 499.341 390.26C499.185 390.26 499.029 390.26 498.873 390.26C498.717 390.26 498.561 390.26 498.405 390.26C498.249 390.26 498.093 390.26 497.937 390.26C497.781 390.26 497.625 390.26 497.469 390.26C497.313 390.26 497.157 390.26 497.001 390.26C496.845 390.26 496.689 390.26 496.533 390.26C496.377 390.26 496.221 390.26 496.065 390.26C495.909 390.26 495.753 390.26 495.597 390.26C495.441 390.26 495.285 390.26 495.129 390.26C494.973 390.26 494.817 390.26 494.661 390.26C494.505 390.26 494.349 390.26 494.193 390.26C494.037 390.26 493.881 390.26 493.725 390.26C493.569 390.26 493.413 390.26 493.257 390.26C493.101 390.26 492.945 390.26 492.789 390.26C492.633 390.26 492.477 390.26 492.321 390.26C492.165 390.26 492.009 390.26 491.853 390.26C491.697 390.26 491.541 390.26 491.385 390.26C491.229 390.26 491.073 390.26 490.917 390.26C490.761 390.26 490.605 390.26 490.449 390.26C490.293 390.26 490.137 390.26 489.981 390.26C489.825 390.26 489.669 390.26 489.513 390.26C489.357 390.26 489.201 390.26 489.045 390.26C488.889 390.26 488.733 390.26 488.577 390.26C488.421 390.26 488.265 390.26 488.109 390.26C487.954 390.26 487.798 390.26 487.642 390.26C487.486 390.26 487.33 390.26 487.174 390.26C487.018 390.26 486.862 390.26 486.706 390.26C486.55 390.26 486.394 390.26 486.238 390.26C486.082 390.26 485.926 390.26 485.77 390.26C485.614 390.26 485.458 390.26 485.302 390.26C485.146 390.26 484.99 390.26 484.834 390.26C484.678 390.26 484.522 390.26 484.366 390.26C484.21 390.26 484.054 390.26 483.898 390.26C483.742 390.26 483.586 390.26 483.43 390.26C483.274 390.26 483.118 390.26 482.962 390.26C482.806 390.26 482.65 390.26 482.494 390.26C482.338 390.26 482.182 390.26 482.026 390.26C481.87 390.26 481.714 390.26 481.558 390.26C481.402 390.26 481.246 390.26 481.09 390.26C480.934 390.26 480.778 390.26 480.622 390.26C480.466 390.26 480.31 390.26 480.154 390.26C479.998 390.26 479.842 390.26 479.686 390.26C479.53 390.26 479.374 390.26 479.218 390.26C479.062 390.26 478.906 390.26 478.75 390.26C478.595 390.26 478.439 390.26 478.283 390.26C478.127 390.26 477.971 390.26 477.815 390.26C477.659 390.26 477.503 390.26 477.347 390.26C477.191 390.26 477.035 390.26 476.879 390.26C476.723 390.26 476.567 390.26 476.411 390.26C476.255 390.26 476.099 390.26 475.943 390.26C475.787 390.26 475.631 390.26 475.475 390.26C475.319 390.26 475.163 390.26 475.007 390.26C474.851 390.26 474.695 390.26 474.539 390.26C474.383 390.26 474.227 390.26 474.071 390.26C473.915 390.26 473.759 390.26 473.603 390.26C473.447 390.26 473.291 390.26 473.135 390.26C472.979 390.26 472.823 390.26 472.667 390.26C472.511 390.26 472.355 390.26 472.199 390.26C472.043 390.26 471.887 390.26 471.731 390.26C471.576 390.26 471.42 390.26 471.264 390.26C471.108 390.26 470.952 390.26 470.796 390.26C470.64 390.26 470.484 390.26 470.328 390.26C470.172 390.26 470.016 390.26 469.86 390.26C469.704 390.26 469.548 390.26 469.392 390.26C469.236 390.26 469.08 390.26 468.924 390.26C468.768 390.26 468.612 390.26 468.456 390.26C468.3 390.26 468.144 390.26 467.988 390.26C467.832 390.26 467.676 390.26 467.52 390.26C467.364 390.26 467.208 390.26 467.052 390.26C466.896 390.26 466.74 390.26 466.584 390.26C466.428 390.26 466.272 390.26 466.116 390.26C465.96 390.26 465.805 390.26 465.649 390.26C465.493 390.26 465.337 390.26 465.181 390.26C465.025 390.26 464.869 390.26 464.713 390.26C464.557 390.26 464.401 390.26 464.245 390.26C464.089 390.26 463.933 390.26 463.777 390.26C463.621 390.26 463.465 390.26 463.309 390.26C463.153 390.26 462.997 390.26 462.841 390.26C462.685 390.26 462.529 390.26 462.373 390.26C462.217 390.26 462.061 390.26 461.905 390.26C461.749 390.26 461.593 390.26 461.437 390.26C461.281 390.26 461.125 390.26 460.969 390.26C460.813 390.26 460.658 390.26 460.502 390.26C460.346 390.26 460.19 390.26 460.034 390.26C459.878 390.26 459.722 390.26 459.566 390.26C459.41 390.26 459.254 390.26 459.098 390.26C458.942 390.26 458.786 390.26 458.63 390.26C458.474 390.26 458.318 390.26 458.162 390.26C458.006 390.26 457.85 390.26 457.694 390.26C457.538 390.26 457.382 390.26 457.226 390.26C457.07 390.26 456.914 390.26 456.758 390.26C456.602 390.26 456.446 390.26 456.29 390.26C456.134 390.26 455.979 390.26 455.823 390.26C455.667 390.26 455.511 390.26 455.355 390.26C455.199 390.26 455.043 390.26 454.887 390.26C454.731 390.26 454.575 390.26 454.419 390.26C454.263 390.26 454.107 390.26 453.951 390.26C453.795 390.26 453.639 390.26 453.483 390.26C453.327 390.26 453.171 390.26 453.015 390.26C452.859 390.26 452.703 390.26 452.547 390.26C452.391 390.26 452.235 390.26 452.079 390.26C451.923 390.26 451.767 390.26 451.612 390.26C451.456 390.26 451.3 390.26 451.144 390.26C450.988 390.26 450.832 390.26 450.676 390.26C450.52 390.26 450.364 390.26 450.208 390.26C450.052 390.26 449.896 390.26 449.74 390.26C449.584 390.26 449.428 390.26 449.272 390.26C449.116 390.26 448.96 390.26 448.804 390.26C448.648 390.26 448.492 390.26 448.336 390.26C448.18 390.26 448.024 390.26 447.868 390.26C447.712 390.26 447.557 390.26 447.401 390.26C447.245 390.26 447.089 390.26 446.933 390.26C446.777 390.26 446.621 390.26 446.465 390.26C446.309 390.26 446.153 390.26 445.997 390.26C445.841 390.26 445.685 390.26 445.529 390.26C445.373 390.26 445.217 390.26 445.061 390.26C444.905 390.26 444.749 390.26 444.593 390.26C444.437 390.26 444.281 390.26 444.125 390.26C443.969 390.26 443.814 390.26 443.658 390.26C443.502 390.26 443.346 390.26 443.19 390.26C443.034 390.26 442.878 390.26 442.722 390.26C442.566 390.26 442.41 390.26 442.254 390.26C442.098 390.26 441.942 390.26 441.786 390.26C441.63 390.26 441.474 390.26 441.318 390.26C441.162 390.26 441.006 390.26 440.85 390.26C440.694 390.26 440.538 390.26 440.383 390.26C440.227 390.26 440.071 390.26 439.915 390.26C439.759 390.26 439.603 390.26 439.447 390.26C439.291 390.26 439.135 390.26 438.979 390.26C438.823 390.26 438.667 390.26 438.511 390.26C438.355 390.26 438.199 390.26 438.043 390.26C437.887 390.26 437.731 390.26 437.575 390.26C437.419 390.26 437.263 390.26 437.107 390.26C436.951 390.26 436.796 390.26 436.64 390.26C436.484 390.26 436.328 390.26 436.172 390.26C436.016 390.26 435.86 390.26 435.704 390.26C435.548 390.26 435.392 390.26 435.236 390.26C435.08 390.26 434.924 390.26 434.768 390.26C434.612 390.26 434.456 390.26 434.3 390.26C434.144 390.26 433.988 390.26 433.832 390.26C433.676 390.26 433.521 390.26 433.365 390.26C433.209 390.26 433.053 390.26 432.897 390.26C432.741 390.26 432.585 390.26 432.429 390.26C432.273 390.26 432.117 390.26 431.961 390.26C431.805 390.26 431.649 390.26 431.493 390.26C431.337 390.26 431.181 390.26 431.025 390.26C430.869 390.26 430.713 390.26 430.557 390.26C430.401 390.26 430.246 390.26 430.09 390.26C429.934 390.26 429.778 390.26 429.622 390.26C429.466 390.26 429.31 390.26 429.154 390.26C428.998 390.26 428.842 390.26 428.686 390.26C428.53 390.26 428.374 390.26 428.218 390.26C428.062 390.26 427.906 390.26 427.75 390.26C427.594 390.26 427.438 390.26 427.283 390.26C427.127 390.26 426.971 390.26 426.815 390.26C426.659 390.26 426.503 390.26 426.347 390.26C426.191 390.26 426.035 390.26 425.879 390.26C425.723 390.26 425.567 390.26 425.411 390.26C425.255 390.26 425.099 390.26 424.943 390.26C424.787 390.26 424.631 390.26 424.475 390.26C424.319 390.26 424.164 390.26 424.008 390.26C423.852 390.26 423.696 390.26 423.54 390.26C423.384 390.26 423.228 390.26 423.072 390.26C422.916 390.26 422.76 390.26 422.604 390.26C422.448 390.26 422.292 390.26 422.136 390.26C421.98 390.26 421.824 390.26 421.668 390.26C421.512 390.26 421.357 390.26 421.201 390.26C421.045 390.26 420.889 390.26 420.733 390.26C420.577 390.26 420.421 390.26 420.265 390.26C420.109 390.26 419.953 390.26 419.797 390.26C419.641 390.26 419.485 390.26 419.329 390.26C419.173 390.26 419.017 390.26 418.861 390.26C418.705 390.26 418.549 390.26 418.394 390.26C418.238 390.26 418.082 390.26 417.926 390.26C417.77 390.26 417.614 390.26 417.458 390.26C417.302 390.26 417.146 390.26 416.99 390.26C416.834 390.26 416.678 390.26 416.522 390.26C416.366 390.26 416.21 390.26 416.054 390.26C415.898 390.26 415.743 390.26 415.587 390.26C415.431 390.26 415.275 390.26 415.119 390.26C414.963 390.26 414.807 390.26 414.651 390.26C414.495 390.26 414.339 390.26 414.183 390.26C414.027 390.26 413.871 390.26 413.715 390.26C413.559 390.26 413.403 390.26 413.247 390.26C413.091 390.26 412.936 390.26 412.78 390.26C412.624 390.26 412.468 390.26 412.312 390.26C412.156 390.26 412 390.26 411.844 390.26C411.688 390.26 411.532 390.26 411.376 390.26C411.22 390.26 411.064 390.26 410.908 390.26C410.752 390.26 410.596 390.26 410.44 390.26C410.285 390.26 410.129 390.26 409.973 390.26C409.817 390.26 409.661 390.26 409.505 390.26C409.349 390.26 409.193 390.26 409.037 390.26C408.881 390.26 408.725 390.26 408.569 390.26C408.413 390.26 408.257 390.26 408.101 390.26C407.945 390.26 407.789 390.26 407.634 390.26C407.478 390.26 407.322 390.26 407.166 390.26C407.01 390.26 406.854 390.26 406.698 390.26C406.542 390.26 406.386 390.26 406.23 390.26C406.074 390.26 405.918 390.26 405.762 390.26C405.606 390.26 405.45 390.26 405.294 390.26C405.139 390.26 404.983 390.26 404.827 390.26C404.671 390.26 404.515 390.26 404.359 390.26C404.203 390.26 404.047 390.26 403.891 390.26C403.735 390.26 403.579 390.26 403.423 390.26C403.267 390.26 403.111 390.26 402.955 390.26C402.799 390.26 402.644 390.26 402.488 390.26C402.332 390.26 402.176 390.26 402.02 390.26C401.864 390.26 401.708 390.26 401.552 390.26C401.396 390.26 401.24 390.26 401.084 390.26C400.928 390.26 400.772 390.26 400.616 390.26C400.46 390.26 400.304 390.26 400.149 390.26C399.993 390.26 399.837 390.26 399.681 390.26C399.525 390.26 399.369 390.26 399.213 390.26C399.057 390.26 398.901 390.26 398.745 390.26C398.589 390.26 398.433 390.26 398.277 390.26C398.121 390.26 397.965 390.26 397.809 390.26C397.654 390.26 397.498 390.26 397.342 390.26C397.186 390.26 397.03 390.26 396.874 390.26C396.718 390.26 396.562 390.26 396.406 390.26C396.25 390.26 396.094 390.26 395.938 390.26C395.782 390.26 395.626 390.26 395.47 390.26C395.315 390.26 395.159 390.26 395.003 390.26C394.847 390.26 394.691 390.26 394.535 390.26C394.379 390.26 394.223 390.26 394.067 390.26C393.911 390.26 393.755 390.26 393.599 390.26C393.443 390.26 393.287 390.26 393.131 390.26C392.975 390.26 392.82 390.26 392.664 390.26C392.508 390.26 392.352 390.26 392.196 390.26C392.04 390.26 391.884 390.26 391.728 390.26C391.572 390.26 391.416 390.26 391.26 390.26C391.104 390.26 390.948 390.26 390.792 390.26C390.637 390.26 390.481 390.26 390.325 390.26C390.169 390.26 390.013 390.26 389.857 390.26C389.701 390.26 389.545 390.26 389.389 390.26C389.233 390.26 389.077 390.26 388.921 390.26C388.765 390.26 388.609 390.26 388.453 390.26C388.298 390.26 388.142 390.26 387.986 390.26C387.83 390.26 387.674 390.26 387.518 390.26C387.362 390.26 387.206 390.26 387.05 390.26C386.894 390.26 386.738 390.26 386.582 390.26C386.426 390.26 386.27 390.26 386.114 390.26C385.959 390.26 385.803 390.26 385.647 390.26C385.491 390.26 385.335 390.26 385.179 390.26C385.023 390.26 384.867 390.26 384.711 390.26C384.555 390.26 384.399 390.26 384.243 390.26C384.087 390.26 383.931 390.26 383.775 390.26C383.62 390.26 383.464 390.26 383.308 390.26C383.152 390.26 382.996 390.26 382.84 390.26C382.684 390.26 382.528 390.26 382.372 390.26C382.216 390.26 382.06 390.26 381.904 390.26C381.748 390.26 381.592 390.26 381.437 390.26C381.281 390.26 381.125 390.26 380.969 390.26C380.813 390.26 380.657 390.26 380.501 390.26C380.345 390.26 380.189 390.26 380.033 390.26C379.877 390.26 379.721 390.26 379.565 390.26C379.409 390.26 379.254 390.26 379.098 390.26C378.942 390.26 378.786 390.26 378.63 390.26C378.474 390.26 378.318 390.26 378.162 390.26C378.006 390.26 377.85 390.26 377.694 390.26C377.538 390.26 377.382 390.26 377.226 390.26C377.07 390.26 376.915 390.26 376.759 390.26C376.603 390.26 376.447 390.26 376.291 390.26C376.135 390.26 375.979 390.26 375.823 390.26C375.667 390.26 375.511 390.26 375.355 390.26C375.199 390.26 375.043 390.26 374.888 390.26C374.732 390.26 374.576 390.26 374.42 390.26C374.264 390.26 374.108 390.26 373.952 390.26C373.796 390.26 373.64 390.26 373.484 390.26C373.328 390.26 373.172 390.26 373.016 390.26C372.86 390.26 372.705 390.26 372.549 390.26C372.393 390.26 372.237 390.26 372.081 390.26C371.925 390.26 371.769 390.26 371.613 390.26C371.457 390.26 371.301 390.26 371.145 390.26C370.989 390.26 370.833 390.26 370.677 390.26C370.522 390.26 370.366 390.26 370.21 390.26C370.054 390.26 369.898 390.26 369.742 390.26C369.586 390.26 369.43 390.26 369.274 390.26C369.118 390.26 368.962 390.26 368.806 390.26C368.65 390.26 368.494 390.26 368.339 390.26C368.183 390.26 368.027 390.26 367.871 390.26C367.715 390.26 367.559 390.26 367.403 390.26C367.247 390.26 367.091 390.26 366.935 390.26C366.779 390.26 366.623 390.26 366.467 390.26C366.312 390.26 366.156 390.26 366 390.26C365.844 390.26 365.688 390.26 365.532 390.26C365.376 390.26 365.22 390.26 365.064 390.26C364.908 390.26 364.752 390.26 364.596 390.26C364.44 390.26 364.284 390.26 364.129 390.26C363.973 390.26 363.817 390.26 363.661 390.26C363.505 390.26 363.349 390.26 363.193 390.26C363.037 390.26 362.881 390.26 362.725 390.26C362.569 390.26 362.413 390.26 362.257 390.26C362.102 390.26 361.946 390.26 361.79 390.26C361.634 390.26 361.478 390.26 361.322 390.26C361.166 390.26 361.01 390.26 360.854 390.26C360.698 390.26 360.542 390.26 360.386 390.26C360.23 390.26 360.074 390.26 359.919 390.26C359.763 390.26 359.607 390.26 359.451 390.26C359.295 390.26 359.139 390.26 358.983 390.26C358.827 390.26 358.671 390.26 358.515 390.26C358.359 390.26 358.203 390.26 358.047 390.26C357.892 390.26 357.736 390.26 357.58 390.26C357.424 390.26 357.268 390.26 357.112 390.26C356.956 390.26 356.8 390.26 356.644 390.26C356.488 390.26 356.332 390.26 356.176 390.26C356.02 390.26 355.865 390.26 355.709 390.26C355.553 390.26 355.397 390.26 355.241 390.26C355.085 390.26 354.929 390.26 354.773 390.26C354.617 390.26 354.461 390.26 354.305 390.26C354.149 390.26 353.993 390.26 353.838 390.26C353.682 390.26 353.526 390.26 353.37 390.26C353.214 390.26 353.058 390.26 352.902 390.26C352.746 390.26 352.59 390.26 352.434 390.26C352.278 390.26 352.122 390.26 351.966 390.26C351.811 390.26 351.655 390.26 351.499 390.26C351.343 390.26 351.187 390.26 351.031 390.26C350.875 390.26 350.719 390.26 350.563 390.26C350.407 390.26 350.251 390.26 350.095 390.26C349.939 390.26 349.784 390.26 349.628 390.26C349.472 390.26 349.316 390.26 349.16 390.26C349.004 390.26 348.848 390.26 348.692 390.26C348.536 390.26 348.38 390.26 348.224 390.26C348.068 390.26 347.913 390.26 347.757 390.26C347.601 390.26 347.445 390.26 347.289 390.26C347.133 390.26 346.977 390.26 346.821 390.26C346.665 390.26 346.509 390.26 346.353 390.26C346.197 390.26 346.041 390.26 345.885 390.26C345.73 390.26 345.574 390.26 345.418 390.26C345.262 390.26 345.106 390.26 344.95 390.26C344.794 390.26 344.638 390.26 344.482 390.26C344.326 390.26 344.17 390.26 344.014 390.26C343.859 390.26 343.703 390.26 343.547 390.26C343.391 390.26 343.235 390.26 343.079 390.26C342.923 390.26 342.767 390.26 342.611 390.26C342.455 390.26 342.299 390.26 342.143 390.26C341.987 390.26 341.832 390.26 341.676 390.26C341.52 390.26 341.364 390.26 341.208 390.26C341.052 390.26 340.896 390.26 340.74 390.26C340.584 390.26 340.428 390.26 340.272 390.26C340.116 390.26 339.961 390.26 339.805 390.26C339.649 390.26 339.493 390.26 339.337 390.26C339.181 390.26 339.025 390.26 338.869 390.26C338.713 390.26 338.557 390.26 338.401 390.26C338.245 390.26 338.089 390.26 337.934 390.26C337.778 390.26 337.622 390.26 337.466 390.26C337.31 390.26 337.154 390.26 336.998 390.26C336.842 390.26 336.686 390.26 336.53 390.26C336.374 390.26 336.218 390.26 336.062 390.26C335.907 390.26 335.751 390.26 335.595 390.26C335.439 390.26 335.283 390.26 335.127 390.26C334.971 390.26 334.815 390.26 334.659 390.26C334.503 390.26 334.347 390.26 334.191 390.26C334.036 390.26 333.88 390.26 333.724 390.26C333.568 390.26 333.412 390.26 333.256 390.26C333.1 390.26 332.944 390.26 332.788 390.26C332.632 390.26 332.476 390.26 332.32 390.26C332.164 390.26 332.009 390.26 331.853 390.26C331.697 390.26 331.541 390.26 331.385 390.26C331.229 390.26 331.073 390.26 330.917 390.26C330.761 390.26 330.605 390.26 330.449 390.26C330.293 390.26 330.138 390.26 329.982 390.26C329.826 390.26 329.67 390.26 329.514 390.26C329.358 390.26 329.202 390.26 329.046 390.26C328.89 390.26 328.734 390.26 328.578 390.26C328.422 390.26 328.266 390.26 328.111 390.26C327.955 390.26 327.799 390.26 327.643 390.26C327.487 390.26 327.331 390.26 327.175 390.26C327.019 390.26 326.863 390.26 326.707 390.26C326.551 390.26 326.395 390.26 326.24 390.26C326.084 390.26 325.928 390.26 325.772 390.26C325.616 390.26 325.46 390.26 325.304 390.26C325.148 390.26 324.992 390.26 324.836 390.26C324.68 390.26 324.524 390.26 324.368 390.26C324.213 390.26 324.057 390.26 323.901 390.26C323.745 390.26 323.589 390.26 323.433 390.26C323.277 390.26 323.121 390.26 322.965 390.26C322.809 390.26 322.653 390.26 322.497 390.26C322.342 390.26 322.186 390.26 322.03 390.26C321.874 390.26 321.718 390.26 321.562 390.26C321.406 390.26 321.25 390.26 321.094 390.26C320.938 390.26 320.782 390.26 320.626 390.26C320.471 390.26 320.315 390.26 320.159 390.26C320.003 390.26 319.847 390.26 319.691 390.26C319.535 390.26 319.379 390.26 319.223 390.26C319.067 390.26 318.911 390.26 318.755 390.26C318.599 390.26 318.444 390.26 318.288 390.26C318.132 390.26 317.976 390.26 317.82 390.26C317.664 390.26 317.508 390.26 317.352 390.26C317.196 390.26 317.04 390.26 316.884 390.26C316.728 390.26 316.573 390.26 316.417 390.26C316.261 390.26 316.105 390.26 315.949 390.26C315.793 390.26 315.637 390.26 315.481 390.26C315.325 390.26 315.169 390.26 315.013 390.26C314.857 390.26 314.702 390.26 314.546 390.26C314.39 390.26 314.234 390.26 314.078 390.26C313.922 390.26 313.766 390.26 313.61 390.26C313.454 390.26 313.298 390.26 313.142 390.26C312.986 390.26 312.83 390.26 312.675 390.26C312.519 390.26 312.363 390.26 312.207 390.26C312.051 390.26 311.895 390.26 311.739 390.26C311.583 390.26 311.427 390.26 311.271 390.26C311.115 390.26 310.959 390.26 310.804 390.26C310.648 390.26 310.492 390.26 310.336 390.26C310.18 390.26 310.024 390.26 309.868 390.26C309.712 390.26 309.556 390.26 309.4 390.26C309.244 390.26 309.088 390.26 308.932 390.26C308.777 390.26 308.621 390.26 308.465 390.26C308.309 390.26 308.153 390.26 307.997 390.26V392.26ZM548.542 391.137C540.405 325.927 532.282 260.717 524.16 195.507C516.038 130.297 507.916 65.0864 499.778 -0.123832L497.793 0.123832C505.931 65.3338 514.053 130.544 522.176 195.754C530.298 260.964 538.42 326.174 546.558 391.384L548.542 391.137ZM498.27 0.857149C616.655 71.9955 735.039 143.072 853.485 214.21L854.515 212.496C736.069 141.357 617.685 70.281 499.301 -0.857149L498.27 0.857149ZM853 213.353C853 213.909 853 214.465 853 215.021C853 215.578 853 216.134 853 216.69C853 217.246 853 217.802 853 218.358C853 218.914 853 219.47 853 220.027C853 220.583 853 221.139 853 221.695C853 222.251 853 222.807 853 223.363C853 223.919 853 224.476 853 225.032C853 225.588 853 226.144 853 226.7C853 227.256 853 227.812 853 228.368C853 228.925 853 229.481 853 230.037C853 230.593 853 231.149 853 231.705C853 232.261 853 232.818 853 233.374C853 233.93 853 234.486 853 235.042C853 235.598 853 236.154 853 236.71C853 237.267 853 237.823 853 238.379C853 238.935 853 239.491 853 240.047C853 240.603 853 241.159 853 241.716C853 242.272 853 242.828 853 243.384C853 243.94 853 244.496 853 245.052C853 245.608 853 246.165 853 246.721C853 247.277 853 247.833 853 248.389C853 248.945 853 249.501 853 250.058C853 250.614 853 251.17 853 251.726C853 252.282 853 252.838 853 253.394C853 253.95 853 254.507 853 255.063C853 255.619 853 256.175 853 256.731C853 257.287 853 257.843 853 258.399C853 258.956 853 259.512 853 260.068C853 260.624 853 261.18 853 261.736C853 262.292 853 262.849 853 263.405C853 263.961 853 264.517 853 265.073C853 265.629 853 266.185 853 266.741C853 267.298 853 267.854 853 268.41C853 268.966 853 269.522 853 270.078C853 270.634 853 271.19 853 271.747C853 272.303 853 272.859 853 273.415C853 273.971 853 274.527 853 275.083C853 275.639 853 276.196 853 276.752C853 277.308 853 277.864 853 278.42C853 278.976 853 279.532 853 280.089C853 280.645 853 281.201 853 281.757C853 282.313 853 282.869 853 283.425C853 283.981 853 284.538 853 285.094C853 285.65 853 286.206 853 286.762C853 287.318 853 287.874 853 288.43C853 288.987 853 289.543 853 290.099C853 290.655 853 291.211 853 291.767C853 292.323 853 292.879 853 293.436C853 293.992 853 294.548 853 295.104C853 295.66 853 296.216 853 296.772C853 297.329 853 297.885 853 298.441C853 298.997 853 299.553 853 300.109C853 300.665 853 301.221 853 301.778C853 302.334 853 302.89 853 303.446C853 304.002 853 304.558 853 305.114C853 305.67 853 306.227 853 306.783C853 307.339 853 307.895 853 308.451C853 309.007 853 309.563 853 310.12C853 310.676 853 311.232 853 311.788C853 312.344 853 312.9 853 313.456C853 314.012 853 314.569 853 315.125C853 315.681 853 316.237 853 316.793C853 317.349 853 317.905 853 318.461C853 319.018 853 319.574 853 320.13C853 320.686 853 321.242 853 321.798C853 322.354 853 322.91 853 323.467C853 324.023 853 324.579 853 325.135C853 325.691 853 326.247 853 326.803C853 327.36 853 327.916 853 328.472C853 329.028 853 329.584 853 330.14C853 330.696 853 331.252 853 331.809C853 332.365 853 332.921 853 333.477C853 334.033 853 334.589 853 335.145C853 335.701 853 336.258 853 336.814C853 337.37 853 337.926 853 338.482C853 339.038 853 339.594 853 340.15C853 340.707 853 341.263 853 341.819C853 342.375 853 342.931 853 343.487C853 344.043 853 344.6 853 345.156C853 345.712 853 346.268 853 346.824C853 347.38 853 347.936 853 348.492C853 349.049 853 349.605 853 350.161C853 350.717 853 351.273 853 351.829C853 352.385 853 352.941 853 353.498C853 354.054 853 354.61 853 355.166C853 355.722 853 356.278 853 356.834C853 357.391 853 357.947 853 358.503C853 359.059 853 359.615 853 360.171C853 360.727 853 361.283 853 361.84C853 362.396 853 362.952 853 363.508C853 364.064 853 364.62 853 365.176C853 365.732 853 366.289 853 366.845C853 367.401 853 367.957 853 368.513C853 369.069 853 369.625 853 370.181C853 370.738 853 371.294 853 371.85C853 372.406 853 372.962 853 373.518C853 374.074 853 374.631 853 375.187C853 375.743 853 376.299 853 376.855C853 377.411 853 377.967 853 378.523C853 379.08 853 379.636 853 380.192C853 380.748 853 381.304 853 381.86C853 382.416 853 382.972 853 383.529C853 384.085 853 384.641 853 385.197C853 385.753 853 386.309 853 386.865C853 387.421 853 387.978 853 388.534C853 389.09 853 389.646 853 390.202C853 390.758 853 391.314 853 391.871C853 392.427 853 392.983 853 393.539C853 394.095 853 394.651 853 395.207C853 395.763 853 396.32 853 396.876C853 397.432 853 397.988 853 398.544C853 399.1 853 399.656 853 400.212C853 400.769 853 401.325 853 401.881C853 402.437 853 402.993 853 403.549C853 404.105 853 404.661 853 405.218C853 405.774 853 406.33 853 406.886C853 407.442 853 407.998 853 408.554C853 409.111 853 409.667 853 410.223C853 410.779 853 411.335 853 411.891C853 412.447 853 413.003 853 413.56C853 414.116 853 414.672 853 415.228C853 415.784 853 416.34 853 416.896C853 417.452 853 418.009 853 418.565C853 419.121 853 419.677 853 420.233C853 420.789 853 421.345 853 421.902C853 422.458 853 423.014 853 423.57C853 424.126 853 424.682 853 425.238C853 425.794 853 426.351 853 426.907C853 427.463 853 428.019 853 428.575C853 429.131 853 429.687 853 430.243C853 430.8 853 431.356 853 431.912C853 432.468 853 433.024 853 433.58C853 434.136 853 434.692 853 435.249C853 435.805 853 436.361 853 436.917C853 437.473 853 438.029 853 438.585C853 439.142 853 439.698 853 440.254C853 440.81 853 441.366 853 441.922C853 442.478 853 443.034 853 443.591C853 444.147 853 444.703 853 445.259C853 445.815 853 446.371 853 446.927C853 447.483 853 448.04 853 448.596C853 449.152 853 449.708 853 450.264C853 450.82 853 451.376 853 451.932C853 452.489 853 453.045 853 453.601C853 454.157 853 454.713 853 455.269C853 455.825 853 456.382 853 456.938C853 457.494 853 458.05 853 458.606C853 459.162 853 459.718 853 460.274C853 460.831 853 461.387 853 461.943C853 462.499 853 463.055 853 463.611C853 464.167 853 464.723 853 465.28C853 465.836 853 466.392 853 466.948C853 467.504 853 468.06 853 468.616C853 469.173 853 469.729 853 470.285C853 470.841 853 471.397 853 471.953C853 472.509 853 473.065 853 473.622C853 474.178 853 474.734 853 475.29C853 475.846 853 476.402 853 476.958C853 477.514 853 478.071 853 478.627C853 479.183 853 479.739 853 480.295C853 480.851 853 481.407 853 481.963C853 482.52 853 483.076 853 483.632C853 484.188 853 484.744 853 485.3C853 485.856 853 486.413 853 486.969C853 487.525 853 488.081 853 488.637C853 489.193 853 489.749 853 490.305C853 490.862 853 491.418 853 491.974C853 492.53 853 493.086 853 493.642C853 494.198 853 494.754 853 495.311C853 495.867 853 496.423 853 496.979C853 497.535 853 498.091 853 498.647C853 499.203 853 499.76 853 500.316C853 500.872 853 501.428 853 501.984C853 502.54 853 503.096 853 503.653C853 504.209 853 504.765 853 505.321C853 505.877 853 506.433 853 506.989C853 507.545 853 508.102 853 508.658C853 509.214 853 509.77 853 510.326C853 510.882 853 511.438 853 511.994C853 512.551 853 513.107 853 513.663C853 514.219 853 514.775 853 515.331C853 515.887 853 516.443 853 517C853 517.556 853 518.112 853 518.668C853 519.224 853 519.78 853 520.336C853 520.893 853 521.449 853 522.005C853 522.561 853 523.117 853 523.673C853 524.229 853 524.785 853 525.342C853 525.898 853 526.454 853 527.01C853 527.566 853 528.122 853 528.678C853 529.234 853 529.791 853 530.347C853 530.903 853 531.459 853 532.015C853 532.571 853 533.127 853 533.684C853 534.24 853 534.796 853 535.352C853 535.908 853 536.464 853 537.02C853 537.576 853 538.133 853 538.689C853 539.245 853 539.801 853 540.357C853 540.913 853 541.469 853 542.025C853 542.582 853 543.138 853 543.694C853 544.25 853 544.806 853 545.362C853 545.918 853 546.474 853 547.031C853 547.587 853 548.143 853 548.699C853 549.255 853 549.811 853 550.367C853 550.924 853 551.48 853 552.036C853 552.592 853 553.148 853 553.704C853 554.26 853 554.816 853 555.373C853 555.929 853 556.485 853 557.041C853 557.597 853 558.153 853 558.709C853 559.265 853 559.822 853 560.378C853 560.934 853 561.49 853 562.046C853 562.602 853 563.158 853 563.714C853 564.271 853 564.827 853 565.383C853 565.939 853 566.495 853 567.051C853 567.607 853 568.164 853 568.72C853 569.276 853 569.832 853 570.388C853 570.944 853 571.5 853 572.056C853 572.613 853 573.169 853 573.725C853 574.281 853 574.837 853 575.393C853 575.949 853 576.505 853 577.062C853 577.618 853 578.174 853 578.73C853 579.286 853 579.842 853 580.398C853 580.955 853 581.511 853 582.067C853 582.623 853 583.179 853 583.735C853 584.291 853 584.847 853 585.404C853 585.96 853 586.516 853 587.072C853 587.628 853 588.184 853 588.74C853 589.296 853 589.853 853 590.409C853 590.965 853 591.521 853 592.077C853 592.633 853 593.189 853 593.745C853 594.302 853 594.858 853 595.414C853 595.97 853 596.526 853 597.082C853 597.638 853 598.195 853 598.751C853 599.307 853 599.863 853 600.419C853 600.975 853 601.531 853 602.087C853 602.644 853 603.2 853 603.756C853 604.312 853 604.868 853 605.424C853 605.98 853 606.536 853 607.093C853 607.649 853 608.205 853 608.761C853 609.317 853 609.873 853 610.429C853 610.985 853 611.542 853 612.098C853 612.654 853 613.21 853 613.766C853 614.322 853 614.878 853 615.435C853 615.991 853 616.547 853 617.103C853 617.659 853 618.215 853 618.771C853 619.327 853 619.884 853 620.44C853 620.996 853 621.552 853 622.108C853 622.664 853 623.22 853 623.776C853 624.333 853 624.889 853 625.445C853 626.001 853 626.557 853 627.113C853 627.669 853 628.225 853 628.782C853 629.338 853 629.894 853 630.45C853 631.006 853 631.562 853 632.118C853 632.674 853 633.231 853 633.787C853 634.343 853 634.899 853 635.455C853 636.011 853 636.567 853 637.124C853 637.68 853 638.236 853 638.792C853 639.348 853 639.904 853 640.46C853 641.016 853 641.573 853 642.129C853 642.685 853 643.241 853 643.797C853 644.353 853 644.909 853 645.466C853 646.022 853 646.578 853 647.134C853 647.69 853 648.246 853 648.802C853 649.358 853 649.915 853 650.471C853 651.027 853 651.583 853 652.139C853 652.695 853 653.251 853 653.807C853 654.364 853 654.92 853 655.476C853 656.032 853 656.588 853 657.144C853 657.7 853 658.256 853 658.813C853 659.369 853 659.925 853 660.481C853 661.037 853 661.593 853 662.149C853 662.706 853 663.262 853 663.818C853 664.374 853 664.93 853 665.486C853 666.042 853 666.598 853 667.155C853 667.711 853 668.267 853 668.823C853 669.379 853 669.935 853 670.491C853 671.047 853 671.604 853 672.16C853 672.716 853 673.272 853 673.828C853 674.384 853 674.94 853 675.496C853 676.053 853 676.609 853 677.165C853 677.721 853 678.277 853 678.833C853 679.389 853 679.945 853 680.502C853 681.058 853 681.614 853 682.17C853 682.726 853 683.282 853 683.838C853 684.395 853 684.951 853 685.507C853 686.063 853 686.619 853 687.175C853 687.731 853 688.287 853 688.844C853 689.4 853 689.956 853 690.512C853 691.068 853 691.624 853 692.18C853 692.737 853 693.293 853 693.849C853 694.405 853 694.961 853 695.517C853 696.073 853 696.629 853 697.186C853 697.742 853 698.298 853 698.854C853 699.41 853 699.966 853 700.522C853 701.078 853 701.635 853 702.191C853 702.747 853 703.303 853 703.859C853 704.415 853 704.971 853 705.527C853 706.084 853 706.64 853 707.196C853 707.752 853 708.308 853 708.864C853 709.42 853 709.977 853 710.533C853 711.089 853 711.645 853 712.201C853 712.757 853 713.313 853 713.869C853 714.426 853 714.982 853 715.538C853 716.094 853 716.65 853 717.206C853 717.762 853 718.318 853 718.875C853 719.431 853 719.987 853 720.543C853 721.099 853 721.655 853 722.211C853 722.767 853 723.324 853 723.88C853 724.436 853 724.992 853 725.548C853 726.104 853 726.66 853 727.216C853 727.773 853 728.329 853 728.885C853 729.441 853 729.997 853 730.553C853 731.109 853 731.666 853 732.222C853 732.778 853 733.334 853 733.89C853 734.446 853 735.002 853 735.558C853 736.115 853 736.671 853 737.227C853 737.783 853 738.339 853 738.895C853 739.451 853 740.008 853 740.564C853 741.12 853 741.676 853 742.232C853 742.788 853 743.344 853 743.9C853 744.457 853 745.013 853 745.569C853 746.125 853 746.681 853 747.237C853 747.793 853 748.349 853 748.906C853 749.462 853 750.018 853 750.574C853 751.13 853 751.686 853 752.242C853 752.798 853 753.355 853 753.911C853 754.467 853 755.023 853 755.579C853 756.135 853 756.691 853 757.247C853 757.804 853 758.36 853 758.916C853 759.472 853 760.028 853 760.584C853 761.14 853 761.697 853 762.253C853 762.809 853 763.365 853 763.921C853 764.477 853 765.033 853 765.589C853 766.146 853 766.702 853 767.258C853 767.814 853 768.37 853 768.926C853 769.482 853 770.038 853 770.595C853 771.151 853 771.707 853 772.263C853 772.819 853 773.375 853 773.931C853 774.487 853 775.044 853 775.6C853 776.156 853 776.712 853 777.268C853 777.824 853 778.38 853 778.937C853 779.493 853 780.049 853 780.605C853 781.161 853 781.717 853 782.273C853 782.829 853 783.386 853 783.942C853 784.498 853 785.054 853 785.61C853 786.166 853 786.722 853 787.279C853 787.835 853 788.391 853 788.947C853 789.503 853 790.059 853 790.615C853 791.171 853 791.728 853 792.284C853 792.84 853 793.396 853 793.952C853 794.508 853 795.064 853 795.62C853 796.177 853 796.733 853 797.289C853 797.845 853 798.401 853 798.957C853 799.513 853 800.069 853 800.626C853 801.182 853 801.738 853 802.294C853 802.85 853 803.406 853 803.962C853 804.518 853 805.075 853 805.631C853 806.187 853 806.743 853 807.299C853 807.855 853 808.411 853 808.968C853 809.524 853 810.08 853 810.636C853 811.192 853 811.748 853 812.304C853 812.86 853 813.417 853 813.973C853 814.529 853 815.085 853 815.641C853 816.197 853 816.753 853 817.309C853 817.866 853 818.422 853 818.978C853 819.534 853 820.09 853 820.646C853 821.202 853 821.758 853 822.315C853 822.871 853 823.427 853 823.983C853 824.539 853 825.095 853 825.651C853 826.208 853 826.764 853 827.32C853 827.876 853 828.432 853 828.988C853 829.544 853 830.1 853 830.657C853 831.213 853 831.769 853 832.325C853 832.881 853 833.437 853 833.993C853 834.549 853 835.106 853 835.662C853 836.218 853 836.774 853 837.33C853 837.886 853 838.442 853 838.999C853 839.555 853 840.111 853 840.667C853 841.223 853 841.779 853 842.335C853 842.891 853 843.448 853 844.004C853 844.56 853 845.116 853 845.672C853 846.228 853 846.784 853 847.34C853 847.897 853 848.453 853 849.009C853 849.565 853 850.121 853 850.677C853 851.233 853 851.789 853 852.346C853 852.902 853 853.458 853 854.014C853 854.57 853 855.126 853 855.682C853 856.239 853 856.795 853 857.351C853 857.907 853 858.463 853 859.019C853 859.575 853 860.131 853 860.688C853 861.244 853 861.8 853 862.356C853 862.912 853 863.468 853 864.024C853 864.58 853 865.137 853 865.693C853 866.249 853 866.805 853 867.361C853 867.917 853 868.473 853 869.029C853 869.586 853 870.142 853 870.698C853 871.254 853 871.81 853 872.366C853 872.922 853 873.479 853 874.035C853 874.591 853 875.147 853 875.703C853 876.259 853 876.815 853 877.371C853 877.928 853 878.484 853 879.04C853 879.596 853 880.152 853 880.708C853 881.264 853 881.82 853 882.377C853 882.933 853 883.489 853 884.045C853 884.601 853 885.157 853 885.713C853 886.27 853 886.826 853 887.382C853 887.938 853 888.494 853 889.05C853 889.606 853 890.162 853 890.719C853 891.275 853 891.831 853 892.387C853 892.943 853 893.499 853 894.055C853 894.611 853 895.168 853 895.724C853 896.28 853 896.836 853 897.392C853 897.948 853 898.504 853 899.06C853 899.617 853 900.173 853 900.729C853 901.285 853 901.841 853 902.397C853 902.953 853 903.51 853 904.066C853 904.622 853 905.178 853 905.734C853 906.29 853 906.846 853 907.402C853 907.959 853 908.515 853 909.071C853 909.627 853 910.183 853 910.739C853 911.295 853 911.851 853 912.408C853 912.964 853 913.52 853 914.076C853 914.632 853 915.188 853 915.744C853 916.3 853 916.857 853 917.413C853 917.969 853 918.525 853 919.081C853 919.637 853 920.193 853 920.75C853 921.306 853 921.862 853 922.418C853 922.974 853 923.53 853 924.086C853 924.642 853 925.199 853 925.755C853 926.311 853 926.867 853 927.423C853 927.979 853 928.535 853 929.091C853 929.648 853 930.204 853 930.76C853 931.316 853 931.872 853 932.428C853 932.984 853 933.541 853 934.097C853 934.653 853 935.209 853 935.765C853 936.321 853 936.877 853 937.433C853 937.99 853 938.546 853 939.102C853 939.658 853 940.214 853 940.77C853 941.326 853 941.882 853 942.439C853 942.995 853 943.551 853 944.107C853 944.663 853 945.219 853 945.775C853 946.331 853 946.888 853 947.444C853 948 853 948.556 853 949.112C853 949.668 853 950.224 853 950.781C853 951.337 853 951.893 853 952.449C853 953.005 853 953.561 853 954.117C853 954.673 853 955.23 853 955.786C853 956.342 853 956.898 853 957.454C853 958.01 853 958.566 853 959.122C853 959.679 853 960.235 853 960.791C853 961.347 853 961.903 853 962.459C853 963.015 853 963.571 853 964.128C853 964.684 853 965.24 853 965.796C853 966.352 853 966.908 853 967.464C853 968.021 853 968.577 853 969.133C853 969.689 853 970.245 853 970.801C853 971.357 853 971.913 853 972.47C853 973.026 853 973.582 853 974.138C853 974.694 853 975.25 853 975.806C853 976.362 853 976.919 853 977.475C853 978.031 853 978.587 853 979.143C853 979.699 853 980.255 853 980.812C853 981.368 853 981.924 853 982.48C853 983.036 853 983.592 853 984.148C853 984.704 853 985.261 853 985.817C853 986.373 853 986.929 853 987.485C853 988.041 853 988.597 853 989.153C853 989.71 853 990.266 853 990.822C853 991.378 853 991.934 853 992.49C853 993.046 853 993.602 853 994.159C853 994.715 853 995.271 853 995.827C853 996.383 853 996.939 853 997.495C853 998.052 853 998.608 853 999.164C853 999.72 853 1000.28 853 1000.83C853 1001.39 853 1001.94 853 1002.5C853 1003.06 853 1003.61 853 1004.17C853 1004.73 853 1005.28 853 1005.84C853 1006.39 853 1006.95 853 1007.51C853 1008.06 853 1008.62 853 1009.17C853 1009.73 853 1010.29 853 1010.84C853 1011.4 853 1011.95 853 1012.51C853 1013.07 853 1013.62 853 1014.18C853 1014.74 853 1015.29 853 1015.85C853 1016.4 853 1016.96 853 1017.52C853 1018.07 853 1018.63 853 1019.18C853 1019.74 853 1020.3 853 1020.85C853 1021.41 853 1021.97 853 1022.52C853 1023.08 853 1023.63 853 1024.19C853 1024.75 853 1025.3 853 1025.86C853 1026.41 853 1026.97 853 1027.53C853 1028.08 853 1028.64 853 1029.19C853 1029.75 853 1030.31 853 1030.86C853 1031.42 853 1031.98 853 1032.53C853 1033.09 853 1033.64 853 1034.2C853 1034.76 853 1035.31 853 1035.87C853 1036.42 853 1036.98 853 1037.54C853 1038.09 853 1038.65 853 1039.21C853 1039.76 853 1040.32 853 1040.87C853 1041.43 853 1041.99 853 1042.54C853 1043.1 853 1043.65 853 1044.21C853 1044.77 853 1045.32 853 1045.88C853 1046.43 853 1046.99 853 1047.55C853 1048.1 853 1048.66 853 1049.22C853 1049.77 853 1050.33 853 1050.88C853 1051.44 853 1052 853 1052.55C853 1053.11 853 1053.66 853 1054.22C853 1054.78 853 1055.33 853 1055.89C853 1056.45 853 1057 853 1057.56C853 1058.11 853 1058.67 853 1059.23C853 1059.78 853 1060.34 853 1060.89C853 1061.45 853 1062.01 853 1062.56C853 1063.12 853 1063.67 853 1064.23C853 1064.79 853 1065.34 853 1065.9C853 1066.46 853 1067.01 853 1067.57H855C855 1067.01 855 1066.46 855 1065.9C855 1065.34 855 1064.79 855 1064.23C855 1063.67 855 1063.12 855 1062.56C855 1062.01 855 1061.45 855 1060.89C855 1060.34 855 1059.78 855 1059.23C855 1058.67 855 1058.11 855 1057.56C855 1057 855 1056.45 855 1055.89C855 1055.33 855 1054.78 855 1054.22C855 1053.66 855 1053.11 855 1052.55C855 1052 855 1051.44 855 1050.88C855 1050.33 855 1049.77 855 1049.22C855 1048.66 855 1048.1 855 1047.55C855 1046.99 855 1046.43 855 1045.88C855 1045.32 855 1044.77 855 1044.21C855 1043.65 855 1043.1 855 1042.54C855 1041.99 855 1041.43 855 1040.87C855 1040.32 855 1039.76 855 1039.21C855 1038.65 855 1038.09 855 1037.54C855 1036.98 855 1036.42 855 1035.87C855 1035.31 855 1034.76 855 1034.2C855 1033.64 855 1033.09 855 1032.53C855 1031.98 855 1031.42 855 1030.86C855 1030.31 855 1029.75 855 1029.19C855 1028.64 855 1028.08 855 1027.53C855 1026.97 855 1026.41 855 1025.86C855 1025.3 855 1024.75 855 1024.19C855 1023.63 855 1023.08 855 1022.52C855 1021.97 855 1021.41 855 1020.85C855 1020.3 855 1019.74 855 1019.18C855 1018.63 855 1018.07 855 1017.52C855 1016.96 855 1016.4 855 1015.85C855 1015.29 855 1014.74 855 1014.18C855 1013.62 855 1013.07 855 1012.51C855 1011.95 855 1011.4 855 1010.84C855 1010.29 855 1009.73 855 1009.17C855 1008.62 855 1008.06 855 1007.51C855 1006.95 855 1006.39 855 1005.84C855 1005.28 855 1004.73 855 1004.17C855 1003.61 855 1003.06 855 1002.5C855 1001.94 855 1001.39 855 1000.83C855 1000.28 855 999.72 855 999.164C855 998.608 855 998.052 855 997.495C855 996.939 855 996.383 855 995.827C855 995.271 855 994.715 855 994.159C855 993.602 855 993.046 855 992.49C855 991.934 855 991.378 855 990.822C855 990.266 855 989.71 855 989.153C855 988.597 855 988.041 855 987.485C855 986.929 855 986.373 855 985.817C855 985.261 855 984.704 855 984.148C855 983.592 855 983.036 855 982.48C855 981.924 855 981.368 855 980.812C855 980.255 855 979.699 855 979.143C855 978.587 855 978.031 855 977.475C855 976.919 855 976.362 855 975.806C855 975.25 855 974.694 855 974.138C855 973.582 855 973.026 855 972.47C855 971.913 855 971.357 855 970.801C855 970.245 855 969.689 855 969.133C855 968.577 855 968.021 855 967.464C855 966.908 855 966.352 855 965.796C855 965.24 855 964.684 855 964.128C855 963.571 855 963.015 855 962.459C855 961.903 855 961.347 855 960.791C855 960.235 855 959.679 855 959.122C855 958.566 855 958.01 855 957.454C855 956.898 855 956.342 855 955.786C855 955.23 855 954.673 855 954.117C855 953.561 855 953.005 855 952.449C855 951.893 855 951.337 855 950.781C855 950.224 855 949.668 855 949.112C855 948.556 855 948 855 947.444C855 946.888 855 946.331 855 945.775C855 945.219 855 944.663 855 944.107C855 943.551 855 942.995 855 942.439C855 941.882 855 941.326 855 940.77C855 940.214 855 939.658 855 939.102C855 938.546 855 937.99 855 937.433C855 936.877 855 936.321 855 935.765C855 935.209 855 934.653 855 934.097C855 933.541 855 932.984 855 932.428C855 931.872 855 931.316 855 930.76C855 930.204 855 929.648 855 929.091C855 928.535 855 927.979 855 927.423C855 926.867 855 926.311 855 925.755C855 925.199 855 924.642 855 924.086C855 923.53 855 922.974 855 922.418C855 921.862 855 921.306 855 920.75C855 920.193 855 919.637 855 919.081C855 918.525 855 917.969 855 917.413C855 916.857 855 916.3 855 915.744C855 915.188 855 914.632 855 914.076C855 913.52 855 912.964 855 912.408C855 911.851 855 911.295 855 910.739C855 910.183 855 909.627 855 909.071C855 908.515 855 907.959 855 907.402C855 906.846 855 906.29 855 905.734C855 905.178 855 904.622 855 904.066C855 903.51 855 902.953 855 902.397C855 901.841 855 901.285 855 900.729C855 900.173 855 899.617 855 899.06C855 898.504 855 897.948 855 897.392C855 896.836 855 896.28 855 895.724C855 895.168 855 894.611 855 894.055C855 893.499 855 892.943 855 892.387C855 891.831 855 891.275 855 890.719C855 890.162 855 889.606 855 889.05C855 888.494 855 887.938 855 887.382C855 886.826 855 886.27 855 885.713C855 885.157 855 884.601 855 884.045C855 883.489 855 882.933 855 882.377C855 881.82 855 881.264 855 880.708C855 880.152 855 879.596 855 879.04C855 878.484 855 877.928 855 877.371C855 876.815 855 876.259 855 875.703C855 875.147 855 874.591 855 874.035C855 873.479 855 872.922 855 872.366C855 871.81 855 871.254 855 870.698C855 870.142 855 869.586 855 869.029C855 868.473 855 867.917 855 867.361C855 866.805 855 866.249 855 865.693C855 865.137 855 864.58 855 864.024C855 863.468 855 862.912 855 862.356C855 861.8 855 861.244 855 860.688C855 860.131 855 859.575 855 859.019C855 858.463 855 857.907 855 857.351C855 856.795 855 856.239 855 855.682C855 855.126 855 854.57 855 854.014C855 853.458 855 852.902 855 852.346C855 851.789 855 851.233 855 850.677C855 850.121 855 849.565 855 849.009C855 848.453 855 847.897 855 847.34C855 846.784 855 846.228 855 845.672C855 845.116 855 844.56 855 844.004C855 843.448 855 842.891 855 842.335C855 841.779 855 841.223 855 840.667C855 840.111 855 839.555 855 838.999C855 838.442 855 837.886 855 837.33C855 836.774 855 836.218 855 835.662C855 835.106 855 834.549 855 833.993C855 833.437 855 832.881 855 832.325C855 831.769 855 831.213 855 830.657C855 830.1 855 829.544 855 828.988C855 828.432 855 827.876 855 827.32C855 826.764 855 826.208 855 825.651C855 825.095 855 824.539 855 823.983C855 823.427 855 822.871 855 822.315C855 821.758 855 821.202 855 820.646C855 820.09 855 819.534 855 818.978C855 818.422 855 817.866 855 817.309C855 816.753 855 816.197 855 815.641C855 815.085 855 814.529 855 813.973C855 813.417 855 812.86 855 812.304C855 811.748 855 811.192 855 810.636C855 810.08 855 809.524 855 808.968C855 808.411 855 807.855 855 807.299C855 806.743 855 806.187 855 805.631C855 805.075 855 804.518 855 803.962C855 803.406 855 802.85 855 802.294C855 801.738 855 801.182 855 800.626C855 800.069 855 799.513 855 798.957C855 798.401 855 797.845 855 797.289C855 796.733 855 796.177 855 795.62C855 795.064 855 794.508 855 793.952C855 793.396 855 792.84 855 792.284C855 791.728 855 791.171 855 790.615C855 790.059 855 789.503 855 788.947C855 788.391 855 787.835 855 787.279C855 786.722 855 786.166 855 785.61C855 785.054 855 784.498 855 783.942C855 783.386 855 782.829 855 782.273C855 781.717 855 781.161 855 780.605C855 780.049 855 779.493 855 778.937C855 778.38 855 777.824 855 777.268C855 776.712 855 776.156 855 775.6C855 775.044 855 774.487 855 773.931C855 773.375 855 772.819 855 772.263C855 771.707 855 771.151 855 770.595C855 770.038 855 769.482 855 768.926C855 768.37 855 767.814 855 767.258C855 766.702 855 766.146 855 765.589C855 765.033 855 764.477 855 763.921C855 763.365 855 762.809 855 762.253C855 761.697 855 761.14 855 760.584C855 760.028 855 759.472 855 758.916C855 758.36 855 757.804 855 757.247C855 756.691 855 756.135 855 755.579C855 755.023 855 754.467 855 753.911C855 753.355 855 752.798 855 752.242C855 751.686 855 751.13 855 750.574C855 750.018 855 749.462 855 748.906C855 748.349 855 747.793 855 747.237C855 746.681 855 746.125 855 745.569C855 745.013 855 744.457 855 743.9C855 743.344 855 742.788 855 742.232C855 741.676 855 741.12 855 740.564C855 740.008 855 739.451 855 738.895C855 738.339 855 737.783 855 737.227C855 736.671 855 736.115 855 735.558C855 735.002 855 734.446 855 733.89C855 733.334 855 732.778 855 732.222C855 731.666 855 731.109 855 730.553C855 729.997 855 729.441 855 728.885C855 728.329 855 727.773 855 727.216C855 726.66 855 726.104 855 725.548C855 724.992 855 724.436 855 723.88C855 723.324 855 722.767 855 722.211C855 721.655 855 721.099 855 720.543C855 719.987 855 719.431 855 718.875C855 718.318 855 717.762 855 717.206C855 716.65 855 716.094 855 715.538C855 714.982 855 714.426 855 713.869C855 713.313 855 712.757 855 712.201C855 711.645 855 711.089 855 710.533C855 709.977 855 709.42 855 708.864C855 708.308 855 707.752 855 707.196C855 706.64 855 706.084 855 705.527C855 704.971 855 704.415 855 703.859C855 703.303 855 702.747 855 702.191C855 701.635 855 701.078 855 700.522C855 699.966 855 699.41 855 698.854C855 698.298 855 697.742 855 697.186C855 696.629 855 696.073 855 695.517C855 694.961 855 694.405 855 693.849C855 693.293 855 692.737 855 692.18C855 691.624 855 691.068 855 690.512C855 689.956 855 689.4 855 688.844C855 688.287 855 687.731 855 687.175C855 686.619 855 686.063 855 685.507C855 684.951 855 684.395 855 683.838C855 683.282 855 682.726 855 682.17C855 681.614 855 681.058 855 680.502C855 679.945 855 679.389 855 678.833C855 678.277 855 677.721 855 677.165C855 676.609 855 676.053 855 675.496C855 674.94 855 674.384 855 673.828C855 673.272 855 672.716 855 672.16C855 671.604 855 671.047 855 670.491C855 669.935 855 669.379 855 668.823C855 668.267 855 667.711 855 667.155C855 666.598 855 666.042 855 665.486C855 664.93 855 664.374 855 663.818C855 663.262 855 662.706 855 662.149C855 661.593 855 661.037 855 660.481C855 659.925 855 659.369 855 658.813C855 658.256 855 657.7 855 657.144C855 656.588 855 656.032 855 655.476C855 654.92 855 654.364 855 653.807C855 653.251 855 652.695 855 652.139C855 651.583 855 651.027 855 650.471C855 649.915 855 649.358 855 648.802C855 648.246 855 647.69 855 647.134C855 646.578 855 646.022 855 645.466C855 644.909 855 644.353 855 643.797C855 643.241 855 642.685 855 642.129C855 641.573 855 641.016 855 640.46C855 639.904 855 639.348 855 638.792C855 638.236 855 637.68 855 637.124C855 636.567 855 636.011 855 635.455C855 634.899 855 634.343 855 633.787C855 633.231 855 632.674 855 632.118C855 631.562 855 631.006 855 630.45C855 629.894 855 629.338 855 628.782C855 628.225 855 627.669 855 627.113C855 626.557 855 626.001 855 625.445C855 624.889 855 624.333 855 623.776C855 623.22 855 622.664 855 622.108C855 621.552 855 620.996 855 620.44C855 619.884 855 619.327 855 618.771C855 618.215 855 617.659 855 617.103C855 616.547 855 615.991 855 615.435C855 614.878 855 614.322 855 613.766C855 613.21 855 612.654 855 612.098C855 611.542 855 610.985 855 610.429C855 609.873 855 609.317 855 608.761C855 608.205 855 607.649 855 607.093C855 606.536 855 605.98 855 605.424C855 604.868 855 604.312 855 603.756C855 603.2 855 602.644 855 602.087C855 601.531 855 600.975 855 600.419C855 599.863 855 599.307 855 598.751C855 598.195 855 597.638 855 597.082C855 596.526 855 595.97 855 595.414C855 594.858 855 594.302 855 593.745C855 593.189 855 592.633 855 592.077C855 591.521 855 590.965 855 590.409C855 589.853 855 589.296 855 588.74C855 588.184 855 587.628 855 587.072C855 586.516 855 585.96 855 585.404C855 584.847 855 584.291 855 583.735C855 583.179 855 582.623 855 582.067C855 581.511 855 580.955 855 580.398C855 579.842 855 579.286 855 578.73C855 578.174 855 577.618 855 577.062C855 576.505 855 575.949 855 575.393C855 574.837 855 574.281 855 573.725C855 573.169 855 572.613 855 572.056C855 571.5 855 570.944 855 570.388C855 569.832 855 569.276 855 568.72C855 568.164 855 567.607 855 567.051C855 566.495 855 565.939 855 565.383C855 564.827 855 564.271 855 563.714C855 563.158 855 562.602 855 562.046C855 561.49 855 560.934 855 560.378C855 559.822 855 559.265 855 558.709C855 558.153 855 557.597 855 557.041C855 556.485 855 555.929 855 555.373C855 554.816 855 554.26 855 553.704C855 553.148 855 552.592 855 552.036C855 551.48 855 550.924 855 550.367C855 549.811 855 549.255 855 548.699C855 548.143 855 547.587 855 547.031C855 546.474 855 545.918 855 545.362C855 544.806 855 544.25 855 543.694C855 543.138 855 542.582 855 542.025C855 541.469 855 540.913 855 540.357C855 539.801 855 539.245 855 538.689C855 538.133 855 537.576 855 537.02C855 536.464 855 535.908 855 535.352C855 534.796 855 534.24 855 533.684C855 533.127 855 532.571 855 532.015C855 531.459 855 530.903 855 530.347C855 529.791 855 529.234 855 528.678C855 528.122 855 527.566 855 527.01C855 526.454 855 525.898 855 525.342C855 524.785 855 524.229 855 523.673C855 523.117 855 522.561 855 522.005C855 521.449 855 520.893 855 520.336C855 519.78 855 519.224 855 518.668C855 518.112 855 517.556 855 517C855 516.443 855 515.887 855 515.331C855 514.775 855 514.219 855 513.663C855 513.107 855 512.551 855 511.994C855 511.438 855 510.882 855 510.326C855 509.77 855 509.214 855 508.658C855 508.102 855 507.545 855 506.989C855 506.433 855 505.877 855 505.321C855 504.765 855 504.209 855 503.653C855 503.096 855 502.54 855 501.984C855 501.428 855 500.872 855 500.316C855 499.76 855 499.203 855 498.647C855 498.091 855 497.535 855 496.979C855 496.423 855 495.867 855 495.311C855 494.754 855 494.198 855 493.642C855 493.086 855 492.53 855 491.974C855 491.418 855 490.862 855 490.305C855 489.749 855 489.193 855 488.637C855 488.081 855 487.525 855 486.969C855 486.413 855 485.856 855 485.3C855 484.744 855 484.188 855 483.632C855 483.076 855 482.52 855 481.963C855 481.407 855 480.851 855 480.295C855 479.739 855 479.183 855 478.627C855 478.071 855 477.514 855 476.958C855 476.402 855 475.846 855 475.29C855 474.734 855 474.178 855 473.622C855 473.065 855 472.509 855 471.953C855 471.397 855 470.841 855 470.285C855 469.729 855 469.173 855 468.616C855 468.06 855 467.504 855 466.948C855 466.392 855 465.836 855 465.28C855 464.723 855 464.167 855 463.611C855 463.055 855 462.499 855 461.943C855 461.387 855 460.831 855 460.274C855 459.718 855 459.162 855 458.606C855 458.05 855 457.494 855 456.938C855 456.382 855 455.825 855 455.269C855 454.713 855 454.157 855 453.601C855 453.045 855 452.489 855 451.932C855 451.376 855 450.82 855 450.264C855 449.708 855 449.152 855 448.596C855 448.04 855 447.483 855 446.927C855 446.371 855 445.815 855 445.259C855 444.703 855 444.147 855 443.591C855 443.034 855 442.478 855 441.922C855 441.366 855 440.81 855 440.254C855 439.698 855 439.142 855 438.585C855 438.029 855 437.473 855 436.917C855 436.361 855 435.805 855 435.249C855 434.692 855 434.136 855 433.58C855 433.024 855 432.468 855 431.912C855 431.356 855 430.8 855 430.243C855 429.687 855 429.131 855 428.575C855 428.019 855 427.463 855 426.907C855 426.351 855 425.794 855 425.238C855 424.682 855 424.126 855 423.57C855 423.014 855 422.458 855 421.902C855 421.345 855 420.789 855 420.233C855 419.677 855 419.121 855 418.565C855 418.009 855 417.452 855 416.896C855 416.34 855 415.784 855 415.228C855 414.672 855 414.116 855 413.56C855 413.003 855 412.447 855 411.891C855 411.335 855 410.779 855 410.223C855 409.667 855 409.111 855 408.554C855 407.998 855 407.442 855 406.886C855 406.33 855 405.774 855 405.218C855 404.661 855 404.105 855 403.549C855 402.993 855 402.437 855 401.881C855 401.325 855 400.769 855 400.212C855 399.656 855 399.1 855 398.544C855 397.988 855 397.432 855 396.876C855 396.32 855 395.763 855 395.207C855 394.651 855 394.095 855 393.539C855 392.983 855 392.427 855 391.871C855 391.314 855 390.758 855 390.202C855 389.646 855 389.09 855 388.534C855 387.978 855 387.421 855 386.865C855 386.309 855 385.753 855 385.197C855 384.641 855 384.085 855 383.529C855 382.972 855 382.416 855 381.86C855 381.304 855 380.748 855 380.192C855 379.636 855 379.08 855 378.523C855 377.967 855 377.411 855 376.855C855 376.299 855 375.743 855 375.187C855 374.631 855 374.074 855 373.518C855 372.962 855 372.406 855 371.85C855 371.294 855 370.738 855 370.181C855 369.625 855 369.069 855 368.513C855 367.957 855 367.401 855 366.845C855 366.289 855 365.732 855 365.176C855 364.62 855 364.064 855 363.508C855 362.952 855 362.396 855 361.84C855 361.283 855 360.727 855 360.171C855 359.615 855 359.059 855 358.503C855 357.947 855 357.391 855 356.834C855 356.278 855 355.722 855 355.166C855 354.61 855 354.054 855 353.498C855 352.941 855 352.385 855 351.829C855 351.273 855 350.717 855 350.161C855 349.605 855 349.049 855 348.492C855 347.936 855 347.38 855 346.824C855 346.268 855 345.712 855 345.156C855 344.6 855 344.043 855 343.487C855 342.931 855 342.375 855 341.819C855 341.263 855 340.707 855 340.15C855 339.594 855 339.038 855 338.482C855 337.926 855 337.37 855 336.814C855 336.258 855 335.701 855 335.145C855 334.589 855 334.033 855 333.477C855 332.921 855 332.365 855 331.809C855 331.252 855 330.696 855 330.14C855 329.584 855 329.028 855 328.472C855 327.916 855 327.36 855 326.803C855 326.247 855 325.691 855 325.135C855 324.579 855 324.023 855 323.467C855 322.91 855 322.354 855 321.798C855 321.242 855 320.686 855 320.13C855 319.574 855 319.018 855 318.461C855 317.905 855 317.349 855 316.793C855 316.237 855 315.681 855 315.125C855 314.569 855 314.012 855 313.456C855 312.9 855 312.344 855 311.788C855 311.232 855 310.676 855 310.12C855 309.563 855 309.007 855 308.451C855 307.895 855 307.339 855 306.783C855 306.227 855 305.67 855 305.114C855 304.558 855 304.002 855 303.446C855 302.89 855 302.334 855 301.778C855 301.221 855 300.665 855 300.109C855 299.553 855 298.997 855 298.441C855 297.885 855 297.329 855 296.772C855 296.216 855 295.66 855 295.104C855 294.548 855 293.992 855 293.436C855 292.879 855 292.323 855 291.767C855 291.211 855 290.655 855 290.099C855 289.543 855 288.987 855 288.43C855 287.874 855 287.318 855 286.762C855 286.206 855 285.65 855 285.094C855 284.538 855 283.981 855 283.425C855 282.869 855 282.313 855 281.757C855 281.201 855 280.645 855 280.089C855 279.532 855 278.976 855 278.42C855 277.864 855 277.308 855 276.752C855 276.196 855 275.639 855 275.083C855 274.527 855 273.971 855 273.415C855 272.859 855 272.303 855 271.747C855 271.19 855 270.634 855 270.078C855 269.522 855 268.966 855 268.41C855 267.854 855 267.298 855 266.741C855 266.185 855 265.629 855 265.073C855 264.517 855 263.961 855 263.405C855 262.849 855 262.292 855 261.736C855 261.18 855 260.624 855 260.068C855 259.512 855 258.956 855 258.399C855 257.843 855 257.287 855 256.731C855 256.175 855 255.619 855 255.063C855 254.507 855 253.95 855 253.394C855 252.838 855 252.282 855 251.726C855 251.17 855 250.614 855 250.058C855 249.501 855 248.945 855 248.389C855 247.833 855 247.277 855 246.721C855 246.165 855 245.608 855 245.052C855 244.496 855 243.94 855 243.384C855 242.828 855 242.272 855 241.716C855 241.159 855 240.603 855 240.047C855 239.491 855 238.935 855 238.379C855 237.823 855 237.267 855 236.71C855 236.154 855 235.598 855 235.042C855 234.486 855 233.93 855 233.374C855 232.818 855 232.261 855 231.705C855 231.149 855 230.593 855 230.037C855 229.481 855 228.925 855 228.368C855 227.812 855 227.256 855 226.7C855 226.144 855 225.588 855 225.032C855 224.476 855 223.919 855 223.363C855 222.807 855 222.251 855 221.695C855 221.139 855 220.583 855 220.027C855 219.47 855 218.914 855 218.358C855 217.802 855 217.246 855 216.69C855 216.134 855 215.578 855 215.021C855 214.465 855 213.909 855 213.353H853ZM854.656 1066.81C813.627 1031.18 772.613 995.551 731.599 959.92C690.586 924.289 649.572 888.658 608.543 853.027L607.231 854.537C648.26 890.168 689.274 925.799 730.288 961.43C771.301 997.061 812.315 1032.69 853.344 1068.32L854.656 1066.81ZM608.88 853.666C602.63 800.466 596.38 747.267 590.129 694.068C583.879 640.869 577.629 587.669 571.379 534.47L569.392 534.703C575.643 587.903 581.893 641.102 588.143 694.301C594.393 747.501 600.644 800.7 606.894 853.899L608.88 853.666ZM570.396 533.587C522.652 533.093 474.893 532.599 427.134 532.105C379.375 531.611 331.616 531.117 283.872 530.623L283.852 532.622C331.595 533.117 379.354 533.611 427.113 534.105C474.872 534.599 522.631 535.093 570.375 535.587L570.396 533.587ZM282.868 531.517C277.113 585.55 271.373 639.583 265.633 693.616C259.893 747.649 254.154 801.682 248.398 855.714L250.387 855.926C256.142 801.893 261.882 747.86 267.622 693.827C273.362 639.794 279.101 585.761 284.857 531.729L282.868 531.517ZM248.745 855.058C165.635 925.641 82.525 996.285 -0.647042 1066.87L0.647042 1068.39C83.8194 997.809 166.93 927.165 250.04 856.583L248.745 855.058Z" fill="#91784A" mask="url(#path-1-inside-1_11_323)"/>
</g>
</svg>